<svg width="41" height="32" viewBox="0 0 41 32" fill="none" xmlns="http://www.w3.org/2000/svg">
<path d="M3.57269 12.8407C3.53886 13.0399 3.51227 13.24 3.49296 13.4407C3.27657 15.5017 3.4588 17.8207 4.34371 20.0427C5.62724 23.2657 8.19999 25.6487 12.2795 26.7537C12.4238 26.7972 12.5765 26.8147 12.7286 26.8054C12.8808 26.796 13.0292 26.7599 13.1652 26.6992C13.3011 26.6385 13.4218 26.5545 13.5201 26.4521C13.6183 26.3496 13.6921 26.2309 13.7372 26.103C13.7822 25.975 13.7975 25.8404 13.7821 25.7072C13.7668 25.574 13.7211 25.4448 13.6478 25.3273C13.5745 25.2099 13.4751 25.1066 13.3555 25.0235C13.2359 24.9404 13.0985 24.8793 12.9514 24.8437C9.6031 23.9347 7.54969 22.0347 6.49394 19.3827C5.73202 17.4727 5.57257 15.4227 5.76049 13.6227C5.78441 13.3927 5.80832 13.2327 5.82199 13.1587C5.87002 12.8968 5.79759 12.6289 5.62063 12.4139C5.44368 12.1989 5.1767 12.0544 4.87842 12.0122C4.58015 11.9701 4.27501 12.0337 4.03013 12.189C3.78526 12.3444 3.62071 12.5788 3.57269 12.8407Z" fill="#64A002"/>
<path d="M14.0415 29.198C13.9937 29.255 14.5256 28.64 14.6303 28.488C15.1952 27.666 15.2408 26.671 14.9367 25.521C14.7768 24.944 14.5654 24.3789 14.3046 23.831C14.1827 23.5688 14.0567 23.3081 13.9265 23.049C13.8684 22.9268 13.7833 22.8158 13.676 22.7227C13.5687 22.6296 13.4413 22.5561 13.3014 22.5066C13.1615 22.457 13.0118 22.4324 12.8609 22.434C12.71 22.4357 12.5611 22.4637 12.4226 22.5164C12.2842 22.569 12.159 22.6453 12.0545 22.7408C11.9499 22.8363 11.868 22.9491 11.8134 23.0726C11.7589 23.1961 11.7329 23.3279 11.7369 23.4604C11.7409 23.5928 11.7748 23.7232 11.8366 23.844C12.02 24.215 12.0929 24.366 12.192 24.582C12.4346 25.106 12.6077 25.558 12.7181 25.973C12.9004 26.665 12.8776 27.167 12.6806 27.453C12.6487 27.5 12.2364 27.976 12.2022 28.019C12.0394 28.213 11.9061 28.389 11.7922 28.564C11.1066 29.614 11.1818 30.722 12.6384 31.167C13.799 31.521 15.7704 31.374 17.2623 30.497C19.4216 29.225 20.4159 26.71 19.9216 22.887C19.8837 22.6263 19.7304 22.3892 19.4949 22.2269C19.2594 22.0647 18.9606 21.9904 18.6632 22.0201C18.3658 22.0498 18.0936 22.1811 17.9056 22.3856C17.7176 22.5902 17.6289 22.8515 17.6586 23.113C18.0641 26.254 17.3625 28.029 15.9936 28.835C15.3558 29.21 14.5221 29.358 13.9208 29.347L14.0415 29.198Z" fill="#64A002"/>
<path d="M28.0204 17.8657C27.9862 18.0827 27.8814 18.5057 27.6707 19.0617C27.3003 20.0477 26.7595 20.9779 26.0672 21.8197C24.5126 23.7007 22.2633 25.0227 19.1427 25.5587C18.9926 25.5807 18.849 25.6289 18.7204 25.7005C18.5919 25.7721 18.4809 25.8655 18.3942 25.9754C18.3075 26.0853 18.2468 26.2093 18.2156 26.3401C18.1844 26.4709 18.1834 26.6059 18.2126 26.7371C18.2419 26.8683 18.3007 26.993 18.3858 27.1038C18.4709 27.2147 18.5804 27.3094 18.7079 27.3825C18.8354 27.4555 18.9782 27.5054 19.128 27.5291C19.2778 27.5529 19.4316 27.55 19.5801 27.5207C23.2849 26.8857 26.0273 25.2727 27.9099 22.9947C29.403 21.1877 30.0852 19.3847 30.2788 18.1347C30.3196 17.8717 30.2397 17.6053 30.0568 17.394C29.8738 17.1828 29.6028 17.044 29.3033 17.0082C29.0039 16.9724 28.7004 17.0425 28.4598 17.2031C28.2192 17.3637 28.0612 17.6027 28.0204 17.8657Z" fill="#64A002"/>
<path d="M17.6517 5.85891C17.9387 5.99391 18.2143 6.14491 18.4774 6.30991C19.1015 6.70391 19.5297 7.14991 20.3645 8.19391L20.4978 8.36191C20.7632 8.69391 20.9363 8.90391 21.1276 9.12291C23.0364 11.3129 25.0329 11.7229 29.577 11.6659L29.8674 11.6629C31.1031 11.6479 31.8092 11.6629 32.5279 11.7359C34.7339 11.9589 36.6825 13.1369 37.6255 14.8319C39.2803 17.8079 38.9558 19.1519 36.8124 21.9539C35.2384 24.0109 34.6713 25.0709 34.6143 26.7709C34.5665 28.1899 33.6087 29.1429 31.2523 29.6289C31.5484 29.2869 31.7455 28.9159 31.8332 28.5239C32.1725 27.0039 31.0564 25.7629 28.8675 24.3139C28.4985 24.0689 26.9394 23.1069 26.7116 22.9389C26.597 22.8545 26.4646 22.7907 26.322 22.7512C26.1793 22.7116 26.0292 22.6972 25.8802 22.7086C25.7312 22.72 25.5862 22.7571 25.4535 22.8177C25.3208 22.8783 25.203 22.9613 25.1069 23.0619C25.0107 23.1625 24.938 23.2787 24.893 23.404C24.848 23.5292 24.8316 23.661 24.8446 23.7919C24.8576 23.9227 24.8998 24.05 24.9689 24.1665C25.0379 24.283 25.1324 24.3865 25.247 24.4709C25.5636 24.7039 27.1945 25.7109 27.4951 25.9109C28.9939 26.9019 29.6989 27.6859 29.5975 28.1389C29.5747 28.2409 29.5064 28.3549 29.3697 28.4909C29.347 28.5139 29.3299 28.5309 29.2786 28.5779C28.9222 28.9169 28.7616 29.1019 28.6215 29.4239C28.2309 30.3219 28.5987 31.1589 29.5132 31.5249C30.0553 31.7419 30.7296 31.7669 31.3503 31.6559C34.9526 31.0199 36.8078 29.2979 36.891 26.8299C36.932 25.6239 37.3579 24.8279 38.6984 23.0749C41.2529 19.7349 41.7483 17.6869 39.6721 13.9549C38.384 11.6379 35.7566 10.0489 32.7875 9.74891C31.9459 9.66391 31.1646 9.64791 29.8378 9.66291L29.544 9.66591C25.6832 9.71491 24.2561 9.42191 22.9362 7.90791C22.7393 7.67982 22.5479 7.4481 22.3622 7.21291L22.2289 7.04591C21.2529 5.82291 20.7028 5.25091 19.8053 4.68591C19.0606 4.21843 18.2463 3.84292 17.3852 3.56991C17.7121 3.96391 17.8419 4.68591 17.6517 5.85891ZM13.0221 5.01191C11.2637 5.09991 9.70455 5.61991 8.62146 6.55591C8.4028 6.74591 8.22741 6.92891 7.83221 7.36891C7.25252 8.01491 6.95869 8.30791 6.50882 8.63591C5.80613 9.14791 5.20594 9.32991 3.94063 9.55991L3.75385 9.59391C3.48166 9.63936 3.21309 9.70016 2.9498 9.77591C2.43388 9.93091 2.23457 10.1779 2.28582 10.5689C2.37921 11.2899 2.86666 11.5849 5.8961 11.8459C6.0473 11.856 6.19468 11.8925 6.32958 11.9533C6.46449 12.0141 6.58422 12.098 6.68174 12.1999C6.77925 12.3019 6.8526 12.4199 6.89748 12.5471C6.94235 12.6743 6.95785 12.808 6.94306 12.9405C6.92827 13.0731 6.8835 13.2016 6.81136 13.3187C6.73922 13.4359 6.64118 13.5391 6.52297 13.6225C6.40477 13.7059 6.26879 13.7678 6.12301 13.8044C5.97722 13.8411 5.82458 13.8518 5.67402 13.8359C1.6936 13.4929 0.262019 12.6269 0.0228524 10.7959C-0.155953 9.42591 0.727825 8.33191 2.20724 7.88491C2.52955 7.78691 2.83591 7.71891 3.28577 7.63591L3.47938 7.60091C4.39049 7.43591 4.73102 7.33291 5.05332 7.09691C5.34146 6.88691 5.56241 6.66691 6.06352 6.10891C6.4963 5.62591 6.71496 5.39891 7.02246 5.13191C8.94832 3.46491 11.7955 2.78991 14.8011 3.05491C15.2202 3.09191 15.637 3.14991 16.0459 3.22891C15.0778 3.41991 13.8877 4.19391 13.0221 5.01191Z" fill="#64A002"/>
<path d="M12.8833 19.3319C13.8354 19.0579 15.1895 18.4359 16.5414 17.3509C18.4752 15.7979 19.7622 13.7279 20.0799 11.1059C20.1001 10.9734 20.0899 10.8388 20.0499 10.7099C20.0099 10.581 19.9408 10.4605 19.8469 10.3554C19.7529 10.2504 19.6359 10.1629 19.5028 10.0982C19.3697 10.0335 19.2232 9.99283 19.0719 9.97866C18.9206 9.96449 18.7676 9.97709 18.622 10.0157C18.4763 10.0543 18.3409 10.1182 18.2239 10.2035C18.1068 10.2888 18.0103 10.3938 17.9403 10.5124C17.8702 10.631 17.8279 10.7607 17.8158 10.8939C17.5596 13.0069 16.5459 14.6369 15.0039 15.8739C14.4031 16.356 13.734 16.7681 13.0131 17.0999C12.6168 17.2819 12.3184 17.3899 12.1726 17.4319C11.8892 17.517 11.6554 17.6969 11.5219 17.9324C11.3884 18.1679 11.366 18.4401 11.4594 18.69C11.5529 18.9399 11.7548 19.1474 12.0213 19.2676C12.2878 19.3877 12.5975 19.4108 12.8833 19.3319ZM17.7327 20.4429C20.5321 18.7359 22.5889 16.3369 23.1766 13.1599C23.203 13.0293 23.1996 12.8954 23.1665 12.766C23.1335 12.6367 23.0715 12.5143 22.9841 12.4062C22.8967 12.298 22.7857 12.2062 22.6575 12.1361C22.5293 12.066 22.3866 12.019 22.2375 11.9977C22.0884 11.9765 21.936 11.9815 21.7892 12.0125C21.6423 12.0435 21.504 12.0998 21.3822 12.1782C21.2603 12.2565 21.1575 12.3554 21.0796 12.469C21.0017 12.5826 20.9503 12.7087 20.9284 12.8399C20.4523 15.4119 18.7679 17.3769 16.4343 18.7999C16.3089 18.8738 16.2015 18.9688 16.1184 19.0795C16.0352 19.1903 15.9779 19.3144 15.9499 19.4447C15.9219 19.575 15.9237 19.7089 15.9552 19.8386C15.9867 19.9683 16.0473 20.0913 16.1334 20.2002C16.2195 20.3092 16.3294 20.402 16.4567 20.4733C16.5841 20.5446 16.7263 20.593 16.8752 20.6155C17.024 20.6381 17.1765 20.6345 17.3237 20.6048C17.4709 20.5752 17.6099 20.5201 17.7327 20.4429ZM13.0883 6.59585C13.66 5.63685 15.3866 4.34885 16.3455 4.19585C16.5414 4.16385 16.4867 4.13485 16.5425 4.34085C16.7145 4.97085 16.5289 6.23085 15.882 8.09285C15.8343 8.21933 15.8159 8.35289 15.8279 8.4857C15.8399 8.6185 15.8819 8.74787 15.9516 8.8662C16.0213 8.98454 16.1172 9.08946 16.2337 9.17479C16.3502 9.26013 16.485 9.32417 16.63 9.36314C16.7751 9.40212 16.9276 9.41525 17.0785 9.40176C17.2295 9.38827 17.3758 9.34844 17.509 9.2846C17.6422 9.22076 17.7595 9.13421 17.854 9.03001C17.9485 8.92582 18.0184 8.80609 18.0595 8.67785C19.5948 4.26585 18.908 1.75285 15.9366 2.22785C14.2226 2.50185 11.9437 4.20185 11.0702 5.66985C10.9964 5.78653 10.95 5.91498 10.9336 6.04765C10.9173 6.18032 10.9314 6.31452 10.975 6.44234C11.0187 6.57016 11.091 6.68902 11.1878 6.79192C11.2845 6.89481 11.4038 6.97966 11.5385 7.04147C11.6732 7.10327 11.8206 7.14078 11.972 7.15178C12.1235 7.16278 12.2759 7.14706 12.4204 7.10553C12.5648 7.064 12.6983 6.99751 12.813 6.90998C12.9277 6.82245 13.0213 6.71564 13.0883 6.59585ZM8.98145 9.99385L10.5269 10.1489C10.8273 10.179 11.129 10.103 11.3657 9.93783C11.6023 9.77261 11.7545 9.53161 11.7888 9.26785C11.8231 9.00409 11.7366 8.73918 11.5485 8.53139C11.3603 8.3236 11.0858 8.18995 10.7854 8.15985L9.24111 8.00485C9.09245 7.98988 8.94188 8.00077 8.79801 8.03689C8.65414 8.07301 8.51978 8.13366 8.4026 8.21538C8.16595 8.38041 8.01366 8.62123 7.97923 8.88485C7.94479 9.14848 8.03104 9.41332 8.21899 9.62111C8.40694 9.8289 8.68121 9.96262 8.98145 9.99285V9.99385ZM7.57834 5.47585C7.6926 5.56139 7.82501 5.62625 7.96793 5.66668C8.11086 5.70712 8.26148 5.72234 8.41112 5.71147C8.56077 5.7006 8.70649 5.66385 8.83991 5.60334C8.97332 5.54283 9.09178 5.45975 9.18849 5.35889C9.28519 5.25802 9.35823 5.14136 9.40339 5.01562C9.44855 4.88987 9.46494 4.75753 9.45162 4.6262C9.43831 4.49487 9.39555 4.36715 9.3258 4.25039C9.25606 4.13363 9.1607 4.03013 9.04523 3.94585C7.50431 2.80585 6.30278 2.41185 5.31536 3.09585C4.5637 3.61585 4.45778 4.41985 4.62292 5.51885C4.66847 5.82685 4.73909 6.14885 4.82792 6.47585C4.92245 6.83185 5.01811 7.12485 5.08531 7.30685C5.18034 7.55685 5.38394 7.76381 5.65182 7.88271C5.9197 8.00161 6.23022 8.02284 6.51584 7.94179C6.80146 7.86075 7.03909 7.68397 7.17706 7.4499C7.31503 7.21583 7.34218 6.9434 7.25261 6.69185C7.17347 6.46924 7.10395 6.24408 7.0442 6.01685C6.97245 5.75085 7.61364 6.71085 7.57948 6.47585C7.56467 6.38085 7.26059 6.09985 7.25261 6.01685C7.45761 6.13285 7.29817 5.26885 7.57834 5.47585ZM38.916 12.7099C38.7657 10.3099 36.8888 8.73485 34.094 7.81485C33.6703 7.67485 33.2022 7.57785 32.4426 7.45285C32.4505 7.45385 31.5428 7.30785 31.2752 7.26185C30.8775 7.19535 30.4824 7.11697 30.0908 7.02685C26.9349 6.28685 25.6582 4.80985 26.3734 1.16985C26.4038 1.03872 26.4038 0.903575 26.3736 0.772421C26.3434 0.641266 26.2835 0.51677 26.1975 0.406308C26.1115 0.295846 26.0011 0.201664 25.8729 0.129342C25.7447 0.0570207 25.6012 0.00802985 25.451 -0.0147281C25.3009 -0.037486 25.147 -0.0335481 24.9986 -0.00314759C24.8502 0.0272529 24.7102 0.0834977 24.587 0.162255C24.4638 0.241012 24.3599 0.340679 24.2813 0.455353C24.2028 0.570027 24.1513 0.697375 24.1298 0.829853C23.1982 5.56385 25.2767 7.96885 29.5042 8.95985C29.9154 9.05585 30.3402 9.13985 30.8367 9.22485C31.1203 9.27285 32.0417 9.42185 32.0234 9.41885C32.6589 9.52285 33.0314 9.60085 33.2956 9.68785C35.3353 10.3589 36.5528 11.3809 36.6428 12.8199C36.651 12.951 36.6886 13.0794 36.7533 13.1978C36.8181 13.3162 36.9087 13.4222 37.0201 13.5098C37.1316 13.5974 37.2615 13.6649 37.4027 13.7084C37.5438 13.7519 37.6933 13.7706 37.8426 13.7634C37.9919 13.7561 38.1382 13.7232 38.273 13.6663C38.4078 13.6094 38.5286 13.5298 38.6284 13.432C38.7281 13.3342 38.805 13.2201 38.8546 13.0961C38.9041 12.9722 38.9254 12.841 38.9171 12.7099H38.916Z" fill="#64A002"/>
<path d="M28.8098 0.679632C27.5912 3.83963 29.6161 6.02163 33.4223 7.30063C36.0486 8.18363 37.5303 10.2636 36.7649 12.3726C36.7195 12.4978 36.7027 12.6296 36.7153 12.7604C36.7279 12.8913 36.7697 13.0187 36.8384 13.1354C36.9771 13.371 37.2168 13.5486 37.5046 13.6291C37.7925 13.7096 38.105 13.6864 38.3733 13.5646C38.6417 13.4428 38.844 13.2324 38.9357 12.9796C40.1042 9.75763 37.9015 6.66563 34.2366 5.43263C31.4258 4.48863 30.2391 3.20863 30.9669 1.32063C31.0596 1.07045 31.0362 0.79826 30.902 0.563066C30.7677 0.327872 30.5332 0.14862 30.2495 0.0641601C29.9657 -0.0202997 29.6554 -0.0031622 29.3859 0.111858C29.1165 0.226879 28.9095 0.431515 28.8098 0.679632Z" fill="#64A002"/>
</svg>
