<svg width="39" height="33" viewBox="0 0 39 33" fill="none" xmlns="http://www.w3.org/2000/svg">
<path d="M13.2115 2.15321C12.9973 2.02321 12.7693 1.94121 12.5508 1.97921C12.4455 1.99855 12.3464 2.04102 12.2615 2.10321C11.8045 2.42821 11.6282 2.94921 11.4963 3.46121C10.8418 3.06121 10.1188 2.73121 9.34504 2.48521C7.57171 1.92221 6.03693 1.82821 4.84838 2.31021C4.42098 2.48921 4.03722 2.74992 3.72117 3.07602C3.40512 3.40211 3.16358 3.78654 3.01171 4.20521C2.70138 5.07821 2.86077 5.96821 3.48777 7.39721C3.71682 7.91921 4.01977 8.31721 4.65943 8.99721L5.03521 9.39421C5.28643 9.66221 5.47854 9.87721 5.66327 10.1042C6.86449 11.5722 7.7596 13.4112 8.26732 15.3492C8.34754 15.6562 8.40877 15.9232 8.52065 16.4422L8.61777 16.8812C8.90382 18.1692 9.16138 18.8872 9.61315 19.4952C11.0023 21.3692 11.758 22.6342 12.2235 24.1222C12.7745 25.8892 12.8527 26.6072 12.5138 28.0452C12.2848 29.0162 12.0283 29.7112 11.5934 30.3272C11.5395 30.4042 11.4857 30.4782 11.4097 30.5802L11.2767 30.7592C11.1988 30.8633 11.1249 30.9701 11.055 31.0792L13.2316 31.0622L13.4427 29.5102C13.6063 28.2942 13.7161 27.4542 13.7404 27.2082C13.8649 25.9642 13.9726 25.4912 14.4075 24.2412L14.5627 23.7972C14.6249 23.6172 14.6788 23.4582 14.7284 23.3022C14.8994 22.7752 15.026 22.3122 15.1084 21.8822C15.2646 21.0772 15.2435 20.4752 15.0683 20.1522C14.94 19.9164 14.9159 19.6421 15.0013 19.3894C15.0866 19.1368 15.2743 18.9267 15.5232 18.8052C15.7721 18.6837 16.0617 18.6609 16.3283 18.7417C16.595 18.8226 16.8168 19.0004 16.945 19.2362C17.3831 20.0422 17.4169 21.0412 17.1857 22.2422C17.0735 22.7989 16.9269 23.3488 16.7466 23.8892C16.6917 24.0582 16.6347 24.2272 16.5693 24.4192L16.413 24.8672C16.0257 25.9792 15.9518 26.3072 15.842 27.3962C15.8145 27.6752 15.7048 28.5112 15.5253 29.8482C15.4202 30.6273 15.314 31.4063 15.2065 32.1852C15.1734 32.4244 15.0502 32.6442 14.8595 32.8041C14.6688 32.964 14.4236 33.0532 14.1689 33.0552L9.81476 33.0882C9.56059 33.0902 9.3142 33.0052 9.12087 32.8488C8.92753 32.6925 8.80024 32.4753 8.76238 32.2372C8.72884 31.9667 8.72459 31.6936 8.74971 31.4222C8.80988 30.7582 9.0516 30.2852 9.5456 29.6142L9.68282 29.4292C9.75038 29.3392 9.79576 29.2762 9.83904 29.2152C10.0945 28.8552 10.2771 28.3572 10.4534 27.6092C10.7014 26.5592 10.6571 26.1592 10.199 24.6892C9.81582 23.4632 9.15293 22.3532 7.88627 20.6462C7.22549 19.7562 6.89404 18.8302 6.55204 17.2932C6.5189 17.1443 6.48618 16.9953 6.45388 16.8462C6.38306 16.5063 6.30458 16.1679 6.21849 15.8312C5.77832 14.1512 5.00671 12.5662 3.99443 11.3292C3.84243 11.1432 3.67777 10.9592 3.4561 10.7212L3.08454 10.3292C2.30132 9.49621 1.88015 8.94221 1.53815 8.16421C0.732765 6.32821 0.497376 5.01221 1.01143 3.56621C1.25819 2.88111 1.65283 2.2522 2.17022 1.71951C2.68761 1.18683 3.31642 0.762043 4.0166 0.472208C5.77093 -0.239792 7.7976 -0.115792 10.0174 0.590208C11.1618 0.951013 12.2398 1.47869 13.2126 2.15421L13.2115 2.15321ZM13.543 2.39421C14.93 3.44421 16.0024 4.78421 16.6041 6.31521C17.3515 6.77974 18.1361 7.18831 18.9506 7.53721C21.4977 8.63221 24.2463 9.17221 27.0467 8.86521C27.3248 8.83484 27.6043 8.91039 27.8236 9.07523C28.043 9.24008 28.1842 9.48072 28.2163 9.74421C28.2483 10.0077 28.1686 10.2725 27.9946 10.4803C27.8206 10.688 27.5666 10.8218 27.2884 10.8522C24.0679 11.2052 20.9488 10.5922 18.0787 9.35921C16.6917 8.76321 15.6657 8.16321 15.083 7.74621C14.9108 7.62295 14.7826 7.45263 14.7157 7.25821C14.6413 7.04225 14.5547 6.83027 14.456 6.62321C14.6798 6.37621 14.9553 6.17721 15.3353 6.07521C15.4725 6.03821 15.6182 6.01521 15.729 5.93221C16.413 5.42721 14.4117 3.19521 13.9853 2.79821C13.867 2.68821 13.715 2.53821 13.543 2.39421Z" fill="#64A002"/>
<path d="M33.8599 30.37C33.8852 30.31 33.9285 30.236 34.0383 30.067C34.1966 29.826 34.2642 29.713 34.3444 29.552C35.4 27.366 34.7096 25.096 32.8782 22.522C32.0855 21.405 31.41 20.541 29.8805 18.643C28.921 17.455 28.4977 16.923 27.991 16.264C27.8263 16.0496 27.5783 15.9059 27.3018 15.8647C27.0253 15.8234 26.7427 15.8879 26.5164 16.044C26.2901 16.2001 26.1384 16.4349 26.0949 16.6969C26.0513 16.9589 26.1194 17.2266 26.2842 17.441C26.8025 18.116 27.2342 18.657 28.1789 19.829C29.7063 21.723 30.366 22.566 31.1281 23.639C32.5869 25.691 33.0893 27.342 32.4265 28.716C32.3753 28.8124 32.3182 28.9059 32.2555 28.996C32.0676 29.284 31.981 29.433 31.8934 29.644C31.5715 30.429 31.5155 31.284 31.6485 32.242C31.6818 32.4825 31.8063 32.7034 31.9987 32.8635C32.1912 33.0235 32.4385 33.1119 32.6946 33.112C32.9088 33.112 33.0746 33.114 33.6446 33.119L34.0056 33.122C34.8025 33.128 35.2923 33.126 35.6258 33.112C37.0931 33.044 38.0462 32.422 38.3344 31.314C38.5138 30.622 38.4505 30.096 38.1623 28.736L38.1096 28.488C38.06 28.247 38.0251 28.062 37.9987 27.89C37.8225 26.762 37.7507 25.604 37.7285 23.977C37.7232 23.659 37.7211 23.403 37.718 22.827C37.6884 18.536 37.491 16.615 36.5315 14.219C36.5663 14.307 36.2465 13.475 36.0935 13.093L36.0481 12.981L35.8686 12.54C36.9801 11.098 36.7785 8.97298 35.553 7.30498C34.4447 5.79498 32.6165 4.80698 30.7428 4.84998C28.4512 4.90098 26.243 7.37598 26.3095 9.56998C26.3982 12.504 29.9491 14.17 32.284 12.605C33.405 11.855 33.9549 10.485 33.3184 9.28998C32.835 8.38998 32.1573 7.80698 31.1313 7.68098C30.9938 7.66411 30.8541 7.67306 30.7203 7.70732C30.5864 7.74158 30.461 7.80049 30.3511 7.88067C30.2413 7.96085 30.1492 8.06075 30.0802 8.17464C30.0111 8.28854 29.9664 8.41421 29.9485 8.54448C29.9307 8.67475 29.9402 8.80707 29.9763 8.93389C30.0125 9.0607 30.0747 9.17952 30.1593 9.28357C30.244 9.38762 30.3494 9.47485 30.4696 9.5403C30.5898 9.60574 30.7225 9.64811 30.86 9.66498C31.0785 9.69098 31.2379 9.82798 31.4342 10.195C31.544 10.399 31.4047 10.745 31.0648 10.972C30.1021 11.618 28.4597 10.847 28.4196 9.51198C28.3858 8.37898 29.7285 6.87298 30.7946 6.84898C31.9166 6.82398 33.0957 7.46098 33.8208 8.44698C34.6642 9.59498 34.7001 10.965 33.9327 11.597C33.7445 11.7521 33.6203 11.9653 33.5823 12.1989C33.5442 12.4325 33.5947 12.6713 33.7248 12.873C33.8683 13.1775 33.9997 13.4871 34.1185 13.801C34.2663 14.168 34.5861 15.001 34.5576 14.927C35.3989 17.028 35.5794 18.783 35.6068 22.84C35.61 23.42 35.6132 23.68 35.6174 24.004C35.6417 25.712 35.7177 26.948 35.9098 28.182C35.9415 28.39 35.9826 28.603 36.0386 28.873L36.0913 29.13C36.3098 30.154 36.3573 30.553 36.2845 30.835C36.2391 31.01 36.123 31.086 35.5245 31.114C35.2458 31.126 34.7772 31.128 34.0225 31.122L33.6995 31.119C33.7114 30.8629 33.7656 30.6102 33.8599 30.37Z" fill="#64A002"/>
<path d="M16.3219 22.4083C16.5837 22.4723 17.0386 22.5613 17.6509 22.6503C20.2159 23.0203 22.9624 23.0003 25.5707 22.3183C27.0991 21.9183 28.4967 21.3043 29.7296 20.4483C29.9554 20.2914 30.1061 20.056 30.1487 19.7938C30.1912 19.5316 30.1221 19.2642 29.9565 19.0503C29.7909 18.8364 29.5424 18.6935 29.2657 18.6532C28.989 18.6129 28.7066 18.6784 28.4809 18.8353C27.4654 19.5403 26.3001 20.0533 25.0081 20.3903C22.7291 20.9863 20.2655 21.0043 17.9686 20.6723C17.5905 20.6209 17.2151 20.5535 16.8434 20.4703C16.7088 20.437 16.5685 20.4293 16.4308 20.4476C16.293 20.4658 16.1604 20.5097 16.0406 20.5767C15.9208 20.6436 15.8162 20.7324 15.7327 20.8378C15.6492 20.9432 15.5886 21.0632 15.5542 21.1909C15.5198 21.3186 15.5125 21.4515 15.5325 21.5819C15.5525 21.7123 15.5995 21.8377 15.6709 21.9508C15.7422 22.0639 15.8365 22.1626 15.9482 22.2411C16.0599 22.3196 16.1869 22.3764 16.3219 22.4083Z" fill="#64A002"/>
<path fill-rule="evenodd" clip-rule="evenodd" d="M3.389 1.041L3.43439 1L1.80566 4.33C1.80566 4.33 2.16033 9.223 4.339 9.283C5.27211 9.309 6.14928 8.477 6.35089 7.554C6.59894 6.401 5.49589 5.378 5.57083 4.205C5.65211 2.943 6.11339 1.738 4.17961 1.208L3.389 1.04V1.041Z" fill="#64A002"/>
<path d="M6.75544 4.86001L7.90071 5.21301C8.03299 5.25524 8.17279 5.27219 8.31203 5.26289C8.45126 5.25359 8.58717 5.21822 8.71188 5.15883C8.83659 5.09944 8.94763 5.0172 9.03857 4.91688C9.12951 4.81656 9.19854 4.70015 9.24168 4.57439C9.28481 4.44862 9.30119 4.316 9.28986 4.18421C9.27853 4.05241 9.23972 3.92404 9.17568 3.80655C9.11163 3.68905 9.02363 3.58476 8.91675 3.4997C8.80988 3.41464 8.68626 3.35051 8.55305 3.31101L7.40988 2.95801C7.1446 2.87936 6.85729 2.90302 6.61031 3.02384C6.36333 3.14467 6.17662 3.35291 6.09073 3.60335C6.00483 3.8538 6.02668 4.12623 6.15152 4.36151C6.27637 4.59679 6.49414 4.77592 6.75755 4.86001H6.75544ZM11.6279 1.30301C11.8474 1.14801 12.0923 1.04101 12.3615 0.995013C12.5895 0.955013 12.8164 0.963013 13.0392 1.00901C13.5205 1.10901 13.9132 1.35501 14.3428 1.73101C14.4145 1.79401 14.4832 1.85701 14.5644 1.93301L14.7259 2.08501C15.0869 2.42201 15.7203 3.15201 16.1541 3.77301C17.0471 5.05301 17.368 5.98901 16.3789 6.72001C16.1562 6.88501 15.9852 6.94601 15.6928 7.02001L15.6221 7.03701C15.355 7.10901 15.1999 7.28101 14.8209 7.93501L14.8072 7.96001C14.4937 8.50301 14.3217 8.76201 14.0293 9.06001C13.1099 10.003 11.3745 10.262 10.2504 9.52601C9.16949 8.81801 8.96683 7.62101 9.40805 6.44401L9.49249 6.21601L9.64027 5.82701C9.98121 4.91301 10.1786 4.33601 10.3422 3.73301C10.3591 3.67301 10.3749 3.60801 10.3992 3.51301C10.4414 3.33901 10.4647 3.24601 10.491 3.14601C10.7148 2.30601 11.0093 1.74201 11.6279 1.30301ZM12.5378 3.63601L12.4533 3.96901C12.4269 4.07801 12.4079 4.15401 12.3868 4.23101C12.2042 4.90501 11.9899 5.53001 11.6289 6.49501L11.4812 6.88701L11.3967 7.11301C11.2426 7.52601 11.2838 7.77201 11.4505 7.88101C11.6733 8.02701 12.2464 7.94101 12.4808 7.70101C12.6148 7.56401 12.7235 7.39901 12.9558 7.00001L12.9695 6.97501C13.512 6.03601 13.9142 5.54101 14.633 5.25001C14.5581 5.12237 14.4778 4.99761 14.3924 4.87601C14.0409 4.37101 13.5004 3.74901 13.246 3.51201C13.3664 3.62401 12.9927 3.27301 12.9104 3.20101C12.8582 3.15524 12.8043 3.11121 12.7489 3.06901C12.6771 3.19001 12.6095 3.36901 12.5378 3.63601Z" fill="#64A002"/>
</svg>
