<svg width="52" height="39" viewBox="0 0 52 39" fill="none" xmlns="http://www.w3.org/2000/svg">
<path d="M2.87652 6.09698C5.76152 5.58198 8.45152 4.34698 10.5415 2.51698C10.6315 2.42898 10.7475 2.33498 10.9075 2.23698C11.3615 1.96298 11.7695 1.91298 12.1655 2.15998C12.3904 2.30055 12.662 2.34601 12.9204 2.28638C13.1788 2.22674 13.403 2.06689 13.5435 1.84198C13.6841 1.61708 13.7295 1.34555 13.6699 1.08712C13.6103 0.828698 13.4504 0.604547 13.2255 0.463983C12.0895 -0.246017 10.9085 -0.101017 9.87152 0.526983C9.55852 0.716983 9.32352 0.908983 9.17552 1.05698C7.41752 2.59398 5.06252 3.67498 2.52552 4.12798C2.14936 4.19502 1.77233 4.25702 1.39452 4.31398C1.17627 4.34532 0.974499 4.44792 0.820594 4.6058C0.666689 4.76368 0.569278 4.96801 0.543516 5.18698C0.246516 7.70698 1.45652 9.71498 3.57252 11.211C4.20952 11.661 4.88752 12.034 5.56452 12.335C5.97452 12.517 6.29952 12.637 6.50052 12.699C6.63652 12.732 6.76052 12.766 6.87352 12.809C6.77852 15.937 7.26452 18.985 8.35552 21.574C9.59052 24.501 11.6965 26.912 14.3875 28.405C14.5024 28.4694 14.6289 28.5106 14.7597 28.526C14.8906 28.5414 15.0232 28.5309 15.1499 28.4949C15.2766 28.4589 15.395 28.3983 15.4982 28.3164C15.6015 28.2346 15.6875 28.1331 15.7514 28.0179C15.8153 27.9027 15.8558 27.776 15.8706 27.6451C15.8853 27.5142 15.8741 27.3816 15.8375 27.2551C15.8009 27.1285 15.7397 27.0105 15.6573 26.9076C15.5749 26.8048 15.473 26.7193 15.3575 26.656C13.0675 25.386 11.2635 23.32 10.1985 20.797C9.18652 18.395 8.75052 15.496 8.88552 12.517C8.92252 11.737 8.44152 11.308 7.74052 11.004C7.50443 10.9015 7.25894 10.8221 7.00752 10.767C6.96552 10.749 6.71152 10.656 6.37752 10.507C5.79839 10.2518 5.24574 9.94026 4.72752 9.57698C3.39052 8.63298 2.59752 7.50798 2.50852 6.16098C2.62852 6.14098 2.75152 6.11998 2.87652 6.09698ZM46.1875 18.17C46.0325 19.338 46.2735 20.23 47.0005 21.988C47.3645 22.869 47.4855 23.188 47.5905 23.598C48.0745 25.469 48.1895 27.298 48.1405 30.448C48.1335 30.879 48.1415 31.218 48.1675 31.981C48.1775 32.255 48.1815 32.379 48.1855 32.531C48.2205 33.771 48.1695 34.552 47.9665 35.295L47.9375 35.402C47.8025 35.892 47.7195 36.09 47.5575 36.283C47.2405 36.657 46.6845 36.889 45.9305 36.973C45.1485 37.059 44.5605 37.078 44.1165 37.013C44.4005 36.541 44.9315 36.188 45.6155 36.097C45.8057 36.0717 45.9846 35.9923 46.1309 35.8682C46.2771 35.7441 46.3846 35.5805 46.4405 35.397C46.4985 35.204 46.5815 34.886 46.6635 34.48C46.8085 33.756 46.8935 33.027 46.8815 32.329C46.8565 30.799 46.3825 29.589 45.2375 28.964L45.0895 28.899C44.7427 28.7685 44.4041 28.6172 44.0755 28.446C43.2855 28.045 42.4945 27.545 41.7595 26.942C39.7985 25.333 38.6035 23.314 38.4995 20.82C38.4962 20.6873 38.4665 20.5566 38.4122 20.4355C38.3579 20.3144 38.28 20.2054 38.1831 20.1147C38.0862 20.024 37.9722 19.9535 37.8477 19.9073C37.7233 19.8612 37.5909 19.8402 37.4583 19.8457C37.3257 19.8512 37.1955 19.8831 37.0754 19.9394C36.9552 19.9958 36.8474 20.0754 36.7584 20.1739C36.6693 20.2723 36.6007 20.3874 36.5566 20.5126C36.5125 20.6378 36.4938 20.7705 36.5015 20.903C36.6315 24.026 38.1215 26.545 40.4915 28.488C41.3191 29.1637 42.2177 29.7475 43.1715 30.229C43.6615 30.478 44.0605 30.649 44.3305 30.751C44.6705 30.975 44.8675 31.516 44.8815 32.361C44.8834 33.0005 44.8109 33.6382 44.6655 34.261C43.6875 34.554 42.8935 35.168 42.4215 35.951C41.7675 37.033 41.8245 38.355 43.0085 38.788C43.8655 39.102 44.7925 39.111 46.1505 38.96C47.3675 38.826 48.3855 38.401 49.0855 37.572C49.4825 37.101 49.6605 36.68 49.8655 35.932L49.8955 35.821C50.1625 34.844 50.2245 33.897 50.1855 32.476C50.1799 32.2876 50.1736 32.0993 50.1665 31.911C50.145 31.4343 50.1363 30.9571 50.1405 30.48C50.1915 27.162 50.0675 25.19 49.5275 23.097C49.3905 22.564 49.2515 22.197 48.8475 21.223C48.2555 19.791 48.0775 19.13 48.1695 18.432C48.2565 17.776 48.5765 17.449 49.1905 17.375L49.5415 17.325C49.6836 17.3058 49.8264 17.2921 49.9695 17.284C50.7655 17.756 51.9105 16.826 51.3075 15.865C49.8775 13.588 47.7475 12.378 45.1685 12.075C43.2905 11.855 41.3145 12.123 39.3785 12.7C38.5005 12.962 37.8265 13.227 37.4305 13.41C37.1928 13.5234 37.0094 13.726 36.9202 13.9738C36.8309 14.2217 36.8431 14.4947 36.954 14.7336C37.0649 14.9725 37.2656 15.158 37.5124 15.2498C37.7593 15.3417 38.0324 15.3324 38.2725 15.224C38.3425 15.191 38.4925 15.127 38.7085 15.043C39.0785 14.898 39.4955 14.753 39.9505 14.617C41.6475 14.111 43.3665 13.877 44.9355 14.062C46.2915 14.221 47.4525 14.682 48.3995 15.499C47.1725 15.844 46.3655 16.817 46.1875 18.17Z" fill="#F0EEF7"/>
<path d="M13.6492 3.02721C13.5707 3.13818 13.513 3.26256 13.4792 3.39421C13.4236 3.65373 13.2672 3.88054 13.0444 4.02476C12.8217 4.16897 12.5507 4.21878 12.2912 4.16321C12.0317 4.10765 11.8049 3.95127 11.6606 3.72848C11.5164 3.50569 11.4666 3.23473 11.5222 2.97521C11.5752 2.72921 11.6842 2.41021 11.8842 2.07721C12.3052 1.37721 12.9742 0.929215 13.8602 1.00921C13.9495 1.01742 14.0373 1.0376 14.1212 1.06921L16.9902 2.14521C17.2332 2.22621 17.5102 2.39521 17.7632 2.69121C18.2192 3.22321 18.4202 3.98521 18.3052 4.89221C18.2792 5.56621 18.4402 6.46821 18.9502 7.33021C19.4062 8.10021 20.0932 8.72621 21.0752 9.16921C24.1592 10.5562 27.3182 10.8212 31.8982 10.3382C36.6022 9.84521 40.1702 10.0692 42.3462 11.7382C42.4504 11.8182 42.5378 11.9179 42.6035 12.0317C42.6691 12.1454 42.7118 12.271 42.7289 12.4013C42.746 12.5315 42.7373 12.6638 42.7033 12.7907C42.6693 12.9176 42.6107 13.0365 42.5307 13.1407C42.4507 13.2449 42.351 13.3323 42.2372 13.398C42.1235 13.4637 41.9979 13.5063 41.8676 13.5234C41.7374 13.5406 41.6051 13.5319 41.4782 13.4979C41.3513 13.4639 41.2324 13.4052 41.1282 13.3252C39.5232 12.0952 36.2782 11.8902 32.1072 12.3272C27.2072 12.8432 23.7192 12.5512 20.2542 10.9922C18.8902 10.3782 17.8922 9.46921 17.2292 8.34921C16.8236 7.6599 16.5454 6.90315 16.4082 6.11521C16.3285 5.68938 16.2943 5.25628 16.3062 4.82321C16.3092 4.76821 16.3092 4.76821 16.3162 4.69321C16.3662 4.29221 16.3212 4.09421 16.2542 4.00421L13.6492 3.02721ZM22.3362 33.0372C24.2132 31.3042 24.8532 28.1492 23.7302 23.3162C23.7022 23.1865 23.6488 23.0637 23.5729 22.9549C23.497 22.8461 23.4003 22.7535 23.2883 22.6824C23.1763 22.6114 23.0512 22.5633 22.9205 22.5411C22.7897 22.5188 22.6558 22.5228 22.5266 22.5528C22.3974 22.5827 22.2754 22.6381 22.1678 22.7157C22.0602 22.7933 21.9691 22.8915 21.8998 23.0046C21.8306 23.1177 21.7845 23.2435 21.7643 23.3746C21.7441 23.5057 21.7502 23.6395 21.7822 23.7682C22.7562 27.9592 22.2652 30.3812 20.9792 31.5682C20.5402 31.9732 20.1202 32.1382 19.9032 32.1682C19.7555 32.1877 19.6141 32.2399 19.4892 32.321C19.3643 32.4021 19.2591 32.5101 19.1813 32.6371C19.1035 32.7641 19.055 32.9069 19.0394 33.055C19.0238 33.2031 19.0415 33.3528 19.0912 33.4932C19.2532 33.9492 19.3012 34.4942 19.2502 35.1502C19.2112 35.6382 19.2012 35.7502 19.1712 35.9592C19.0782 36.6092 18.9202 36.9002 18.6712 36.9892C18.1092 37.1902 17.3982 37.2192 16.3742 37.1222C15.9912 37.0862 15.8552 37.0082 15.8412 36.9412C15.8132 36.8132 15.8412 36.6992 15.9082 36.6272C15.9252 36.6092 15.9902 36.5752 16.2192 36.4942C16.8522 36.2682 17.1542 36.1082 17.4702 35.6912C17.8622 35.1752 17.9322 34.6452 17.8472 33.9632C17.8369 33.8837 17.8255 33.8044 17.8132 33.7252L17.8002 33.6322C17.7761 33.4584 17.7561 33.284 17.7402 33.1092C17.7238 32.9343 17.7048 32.7596 17.6832 32.5852C17.5837 31.8144 17.4693 31.0456 17.3402 30.2792C17.0849 28.7884 16.7905 27.3046 16.4572 25.8292C16.1564 24.4596 15.8259 23.0966 15.4662 21.7412C15.3975 21.485 15.2298 21.2666 15.0001 21.134C14.7704 21.0014 14.4974 20.9655 14.2412 21.0342C14.1143 21.0682 13.9954 21.1269 13.8912 21.2069C13.787 21.2868 13.6996 21.3865 13.634 21.5003C13.5014 21.73 13.4655 22.003 13.5342 22.2592C13.8863 23.5871 14.2097 24.9224 14.5042 26.2642C14.8302 27.7054 15.1183 29.1549 15.3682 30.6112C15.4982 31.3832 15.6082 32.1212 15.6992 32.8382C15.7142 32.9552 15.7242 33.0532 15.7472 33.2782C15.7772 33.5912 15.7952 33.7422 15.8202 33.9192L15.8352 34.0192L15.8622 34.2112C15.8892 34.4232 15.8822 34.4762 15.8782 34.4812C15.7809 34.5289 15.6799 34.5687 15.5762 34.6002C15.0242 34.7972 14.7432 34.9402 14.4362 35.2732C14.1838 35.5516 14.002 35.8867 13.9063 36.2501C13.8106 36.6135 13.8037 36.9946 13.8862 37.3612C14.1252 38.4782 15.0342 39.0052 16.1862 39.1142C17.4782 39.2362 18.4392 39.1962 19.3442 38.8732C20.4642 38.4732 20.9642 37.5502 21.1512 36.2432C21.1902 35.9742 21.2012 35.8452 21.2432 35.3182C21.2871 34.8186 21.2774 34.3157 21.2142 33.8182C21.6237 33.6135 22.0016 33.3498 22.3362 33.0372Z" fill="#F0EEF7"/>
<path d="M23.1149 29.7697C29.2199 31.3697 37.2289 29.4097 38.9279 24.3157C39.0117 24.064 38.9921 23.7894 38.8734 23.5521C38.7547 23.3149 38.5466 23.1345 38.2949 23.0507C38.0432 22.9669 37.7685 22.9865 37.5313 23.1053C37.2941 23.224 37.1137 23.432 37.0299 23.6837C35.7539 27.5097 28.8399 29.2037 23.6219 27.8357C23.4937 27.7986 23.3594 27.7875 23.2268 27.8031C23.0943 27.8188 22.9662 27.8607 22.8501 27.9266C22.734 27.9925 22.6323 28.081 22.551 28.1868C22.4696 28.2926 22.4103 28.4136 22.3764 28.5427C22.3426 28.6718 22.3349 28.8064 22.3539 28.9385C22.3729 29.0706 22.4181 29.1976 22.4869 29.3119C22.5558 29.4263 22.6468 29.5257 22.7546 29.6043C22.8625 29.683 22.985 29.7392 23.1149 29.7697Z" fill="#F0EEF7"/>
<path d="M24.07 19.714C24.237 19.878 24.522 20.225 24.811 20.716C26.18 23.037 25.942 25.543 22.846 28.223C22.6538 28.3987 22.5376 28.6426 22.5224 28.9026C22.5072 29.1626 22.594 29.4183 22.7644 29.6153C22.9348 29.8123 23.1754 29.9351 23.4349 29.9574C23.6944 29.9797 23.9524 29.9 24.154 29.735C28.028 26.382 28.367 22.809 26.534 19.701C26.147 19.043 25.754 18.565 25.47 18.286C25.2798 18.1047 25.0259 18.0057 24.7632 18.0101C24.5005 18.0146 24.2501 18.1223 24.0661 18.3099C23.8822 18.4975 23.7795 18.75 23.7802 19.0127C23.7809 19.2755 23.885 19.5274 24.07 19.714ZM41.53 35.259C41.659 35.182 41.782 35.123 42.076 34.992C42.473 34.816 42.655 34.728 42.888 34.585C44.208 33.768 44.375 32.468 43.892 30.774C43.817 30.511 43.732 30.254 43.608 29.9C43.294 29.003 43.294 29.003 43.238 28.766C43.2073 28.6383 43.1517 28.5179 43.0744 28.4116C42.9972 28.3054 42.8997 28.2154 42.7877 28.1469C42.6757 28.0783 42.5512 28.0324 42.4215 28.012C42.2917 27.9915 42.1592 27.9968 42.0315 28.0275C41.9038 28.0582 41.7834 28.1138 41.6772 28.1911C41.5709 28.2683 41.481 28.3658 41.4124 28.4778C41.3438 28.5898 41.298 28.7143 41.2775 28.844C41.257 28.9738 41.2623 29.1063 41.293 29.234C41.341 29.433 41.404 29.644 41.491 29.902C41.524 29.999 41.558 30.1 41.605 30.232L41.721 30.56C41.833 30.88 41.906 31.105 41.968 31.323C42.235 32.255 42.181 32.67 41.838 32.883C41.708 32.963 41.581 33.024 41.268 33.163C41.0067 33.2718 40.7528 33.3977 40.508 33.54C39.435 34.177 38.648 35.308 38.51 36.516C38.386 37.603 39.116 38.064 40.06 38.156C40.17 38.166 40.231 38.169 40.416 38.176L40.533 38.183C41.339 38.246 42.072 38.169 42.737 37.902C42.9831 37.8031 43.1799 37.6104 43.284 37.3664C43.388 37.1224 43.3909 36.8471 43.292 36.601C43.1931 36.3549 43.0004 36.1581 42.7565 36.054C42.5125 35.95 42.2371 35.9471 41.991 36.046C41.647 36.184 41.211 36.23 40.689 36.189L40.667 36.187C40.849 35.819 41.157 35.48 41.53 35.259ZM12.407 7.62798C12.715 8.00998 12.804 8.45498 12.585 9.09798C12.628 8.97298 12.329 9.84398 12.246 10.096C11.5 12.356 11.261 14.084 11.734 15.9C12.124 17.403 13.011 18.749 14.446 19.906C14.6529 20.0668 14.9147 20.1401 15.175 20.1099C15.4353 20.0797 15.6734 19.9486 15.838 19.7446C16.0026 19.5407 16.0805 19.2803 16.0551 19.0195C16.0297 18.7587 15.9029 18.5183 15.702 18.35C14.596 17.457 13.951 16.479 13.669 15.396C13.317 14.043 13.51 12.648 14.145 10.722C14.225 10.483 14.518 9.62698 14.479 9.74198C14.924 8.43398 14.692 7.27499 13.963 6.37199C13.7947 6.1711 13.5543 6.04431 13.2935 6.01888C13.0327 5.99346 12.7723 6.07143 12.5684 6.23603C12.3644 6.40064 12.2333 6.63871 12.2031 6.89902C12.1729 7.15934 12.2462 7.4211 12.407 7.62798Z" fill="#F0EEF7"/>
<path d="M14.5084 13.2998C14.6164 14.1238 15.0074 15.2808 15.8784 16.4398C16.9014 17.8018 18.3754 18.7938 20.3384 19.2438C20.597 19.303 20.8685 19.257 21.0932 19.116C21.3178 18.9749 21.4773 18.7504 21.5364 18.4918C21.5956 18.2333 21.5496 17.9618 21.4085 17.7371C21.2675 17.5124 21.043 17.353 20.7844 17.2938C19.2944 16.9518 18.2244 16.2318 17.4774 15.2388C17.124 14.7673 16.8482 14.2424 16.6604 13.6838C16.586 13.4748 16.5298 13.2596 16.4924 13.0408C16.4754 12.9106 16.4329 12.7849 16.3673 12.6711C16.3018 12.5572 16.2144 12.4574 16.1103 12.3773C16.0062 12.2972 15.8873 12.2384 15.7604 12.2043C15.6335 12.1702 15.5012 12.1613 15.3709 12.1783C15.2406 12.1953 15.115 12.2378 15.0012 12.3034C14.8873 12.369 14.7875 12.4563 14.7074 12.5605C14.6273 12.6646 14.5685 12.7835 14.5344 12.9104C14.5002 13.0372 14.4914 13.1696 14.5084 13.2998Z" fill="#F0EEF7"/>
<path d="M16.5374 6.79976C16.5274 6.97276 16.5184 7.14676 16.5124 7.32176C16.3474 12.0768 17.6624 15.6328 21.4694 16.2838C21.7309 16.3285 21.9995 16.2674 22.216 16.1141C22.4325 15.9608 22.5792 15.7278 22.6239 15.4663C22.6686 15.2048 22.6076 14.9362 22.4543 14.7197C22.301 14.5032 22.0679 14.3565 21.8064 14.3118C19.3564 13.8938 18.3774 11.2478 18.5114 7.39176C18.5164 7.23376 18.5244 7.07576 18.5334 6.91976C18.5439 6.6582 18.4515 6.40295 18.2759 6.20882C18.1003 6.01468 17.8555 5.89714 17.5942 5.88143C17.3329 5.86572 17.0759 5.9531 16.8783 6.1248C16.6807 6.2965 16.5583 6.53883 16.5374 6.79976ZM8.32043 6.98376L9.50643 7.19976C9.63565 7.22334 9.76825 7.22123 9.89665 7.19355C10.0251 7.16588 10.1468 7.11319 10.2548 7.03848C10.3628 6.96378 10.4551 6.86852 10.5263 6.75816C10.5976 6.6478 10.6464 6.52448 10.6699 6.39526C10.6935 6.26604 10.6914 6.13344 10.6637 6.00504C10.636 5.87663 10.5834 5.75494 10.5086 5.6469C10.4339 5.53885 10.3387 5.44659 10.2283 5.37536C10.118 5.30413 9.99465 5.25534 9.86543 5.23176L8.67943 5.01576C8.55021 4.99226 8.41762 4.99443 8.28924 5.02217C8.16086 5.0499 8.0392 5.10265 7.93121 5.1774C7.82321 5.25215 7.731 5.34744 7.65983 5.45783C7.58866 5.56822 7.53993 5.69154 7.51643 5.82076C7.49292 5.94998 7.4951 6.08257 7.52283 6.21095C7.55056 6.33933 7.60331 6.46099 7.67806 6.56898C7.75281 6.67698 7.8481 6.76919 7.95849 6.84036C8.06888 6.91153 8.19121 6.96026 8.32043 6.98376ZM2.81743 4.68976C2.65443 5.18976 2.43643 5.50576 2.18443 5.69576C1.95643 5.86676 1.72943 5.91776 1.58643 5.90876L1.61443 5.91176C1.48191 5.89238 1.34686 5.89982 1.21727 5.93363C1.08769 5.96744 0.966214 6.02693 0.860059 6.10858C0.753904 6.19023 0.665231 6.29237 0.599301 6.40894C0.53337 6.52551 0.491527 6.65413 0.476252 6.78718C0.460978 6.92023 0.472584 7.05499 0.510381 7.18347C0.548179 7.31195 0.611398 7.43153 0.696288 7.53511C0.781179 7.63869 0.88601 7.72417 1.00456 7.78646C1.12311 7.84876 1.25297 7.88661 1.38643 7.89776C1.41643 7.90176 1.41643 7.90176 1.46543 7.90476C2.04343 7.93976 2.73043 7.78776 3.38743 7.29376C3.97543 6.85076 4.43243 6.18976 4.71943 5.30976C4.80165 5.05754 4.7803 4.78299 4.66009 4.54651C4.53988 4.31002 4.33065 4.13098 4.07843 4.04876C3.82621 3.96655 3.55166 3.98789 3.31517 4.1081C3.07869 4.22831 2.89965 4.43754 2.81743 4.68976Z" fill="#F0EEF7"/>
</svg>
