<svg width="55" height="45" viewBox="0 0 55 45" fill="none" xmlns="http://www.w3.org/2000/svg">
<path d="M13.667 1.55105C13.0052 1.50171 12.3411 1.49069 11.678 1.51805C11.066 1.53781 10.4545 1.57115 9.84398 1.61805C9.41785 1.65031 8.99215 1.68798 8.56698 1.73105C7.23198 1.84105 6.59498 2.44705 5.92398 3.74405C5.83398 3.91805 5.79198 3.99905 5.74898 4.07905C5.52198 4.50405 5.34598 4.74405 5.11198 4.92905C4.50598 5.40305 3.18798 5.81105 2.39698 5.81105C1.30598 5.81105 0.661981 6.55005 0.643981 7.53705C0.633981 8.07205 0.800981 8.66505 1.04698 9.19205C2.73298 12.818 7.20598 13.704 11.626 12.363C14.316 11.547 15.645 9.53705 13.919 7.25605C13.8397 7.15132 13.7406 7.06322 13.6273 6.99679C13.514 6.93037 13.3888 6.8869 13.2587 6.86889C13.1286 6.85087 12.9962 6.85866 12.8691 6.8918C12.742 6.92494 12.6227 6.98279 12.518 7.06205C12.4133 7.1413 12.3252 7.2404 12.2587 7.3537C12.1923 7.467 12.1488 7.59227 12.1308 7.72237C12.1128 7.85246 12.1206 7.98483 12.1537 8.11192C12.1869 8.239 12.2447 8.35832 12.324 8.46305C13.004 9.36205 12.596 9.97805 11.045 10.449C7.46198 11.536 4.02598 10.856 2.85998 8.34804C2.77858 8.17349 2.71589 7.99081 2.67298 7.80305C3.86798 7.73105 5.43998 7.21305 6.34598 6.50205C6.84298 6.11205 7.16798 5.66905 7.51398 5.02105C7.56398 4.92805 7.61198 4.83405 7.69998 4.66405C8.08698 3.91505 8.24598 3.76405 8.75598 3.72205C8.83898 3.71205 8.95498 3.70205 9.11598 3.68605C9.38398 3.66105 9.67998 3.63605 9.99398 3.61205C10.5749 3.56749 11.1567 3.53582 11.739 3.51705C12.561 3.49205 13.236 3.50705 13.692 3.56505C13.894 3.66205 14.182 3.83305 14.464 4.06705C14.785 4.33305 15.018 4.62205 15.137 4.91805C15.2092 5.09797 15.3321 5.25302 15.4908 5.36434C15.6496 5.47566 15.8372 5.53844 16.031 5.54505C15.6121 5.27145 15.2793 4.88488 15.071 4.43005C14.887 4.02105 14.779 3.51805 14.493 3.14705C14.146 2.69705 13.532 2.53105 12.99 2.44705C13.006 2.45005 13.22 2.07405 13.24 2.04705C13.365 1.87205 13.507 1.70005 13.667 1.55105ZM18.209 3.16305C18.589 3.37605 19.159 3.82305 19.851 4.57105C20.986 5.79905 22.106 7.49705 23.141 9.73905C23.511 10.542 23.865 11.404 24.201 12.328C24.2458 12.4515 24.2659 12.5826 24.2601 12.7138C24.2543 12.845 24.2227 12.9738 24.1671 13.0927C24.1116 13.2117 24.0331 13.3186 23.9362 13.4073C23.8393 13.496 23.7259 13.5647 23.6025 13.6095C23.479 13.6544 23.348 13.6745 23.2168 13.6687C23.0856 13.6629 22.9568 13.6313 22.8378 13.5757C22.7188 13.5201 22.6119 13.4417 22.5232 13.3448C22.4345 13.2479 22.3658 13.1345 22.321 13.011C22.0231 12.1862 21.6908 11.3741 21.325 10.577C20.376 8.52204 19.372 7.00005 18.382 5.92805C18.2041 5.73446 18.0182 5.5483 17.825 5.37005C18.183 4.79105 18.219 3.99205 18.209 3.34205V3.16205V3.16305Z" fill="#F0EEF7"/>
<path d="M15.2852 2.53686C15.5062 2.82386 15.6413 3.10686 15.8003 3.53986L15.8582 3.69886C15.9162 3.85886 15.9483 3.94186 15.9843 4.02086C16.0843 4.24386 16.2463 4.44686 16.4653 4.62486C16.7673 4.86886 16.9392 4.89586 16.9352 4.90086C17.1352 4.64086 17.2212 4.13686 17.2102 3.35786C17.2082 3.23386 17.2092 3.13786 17.2132 2.92286L17.2153 2.78486C17.2253 2.13686 17.2072 2.08986 17.0602 2.05486C16.1812 1.84886 15.3323 1.83886 14.7703 2.03886C14.9613 2.17586 15.1332 2.33886 15.2852 2.53686ZM14.5083 2.16086C14.3713 2.24286 14.2193 2.39686 14.0523 2.63086C14.0763 2.59786 14.0722 2.60286 13.9802 2.75886L13.9743 2.76886C13.9263 2.84886 13.9043 2.88386 13.8763 2.92686L13.8123 3.02186C13.7863 3.05686 13.7863 3.05686 13.7293 3.12286C13.6913 3.24286 13.6913 3.24286 12.8073 3.42986C11.5163 3.18986 11.8473 1.25686 13.1443 1.45886C13.7973 1.56086 14.3353 1.72986 14.7703 2.03886C14.6791 2.07083 14.5914 2.11169 14.5083 2.16086ZM12.2623 1.76286C12.2133 1.81986 12.2133 1.81986 12.1983 1.84086L12.2583 1.74186C12.3115 1.64683 12.3682 1.55377 12.4283 1.46286C12.7413 1.02786 13.0722 0.689855 13.4802 0.444855C14.5582 -0.201145 16.0303 -0.241145 17.5173 0.107855C18.8872 0.429855 19.2372 1.32786 19.2153 2.81486L19.2122 2.96186C19.209 3.08349 19.208 3.20518 19.2092 3.32686C19.2272 4.53186 19.0792 5.39186 18.5212 6.11886C17.6472 7.25586 16.2673 7.03586 15.2083 6.17986C14.7586 5.82269 14.3998 5.3642 14.1613 4.84186C14.094 4.69107 14.033 4.53761 13.9782 4.38186L13.9242 4.23186C13.8292 3.97486 13.7663 3.84186 13.7013 3.75686C13.5993 3.62586 13.3152 3.50986 12.8372 3.43486L12.9902 2.44686L13.1742 1.46386C12.2942 1.64986 12.2943 1.64986 12.2623 1.76386V1.76286ZM50.1883 16.1459L50.0843 16.2679C50.0243 16.3379 49.9643 16.4079 49.8343 16.5549C49.1893 17.2909 48.8763 17.7309 48.6533 18.3569C48.2928 19.3715 48.2389 20.4698 48.4983 21.5149C48.5713 21.8169 48.6353 22.0539 48.7812 22.5749C49.0283 23.4599 49.1273 23.8579 49.2033 24.3279C49.4233 25.6819 49.4082 27.0869 49.1632 28.4689C49.1387 28.6083 49.1439 28.7513 49.1788 28.8885C49.2136 29.0258 49.2772 29.154 49.3653 29.2649C50.0506 30.1221 50.7018 31.0061 51.3173 31.9149C52.6753 33.9359 52.6083 36.1279 51.4423 39.5919C51.4013 39.7132 51.3613 39.8349 51.3223 39.9569L51.1702 40.4409C51.1102 40.6309 51.0623 40.7759 51.0153 40.9159C50.7073 41.8329 50.4233 42.4189 50.0583 42.8309C49.8773 43.0359 49.2503 43.1279 48.6003 43.0649C48.8315 42.8482 49.0745 42.6446 49.3283 42.4549L49.5343 42.3019C49.9303 42.0089 50.1613 41.8109 50.3823 41.5339C50.9583 40.8179 51.1043 39.9439 51.0323 38.7589C51.0153 38.4994 50.9926 38.2403 50.9643 37.9819C50.9294 37.6955 50.9053 37.408 50.8923 37.1199C50.8621 36.1685 50.8324 35.2172 50.8033 34.2659C50.7967 34.0501 50.7205 33.8422 50.586 33.6733C50.4516 33.5044 50.2661 33.3836 50.0573 33.3289C49.9082 33.2875 49.7604 33.2415 49.6143 33.1909C49.186 33.0439 48.7645 32.8778 48.3513 32.6929C46.9641 32.0779 45.664 31.2831 44.4843 30.3289C41.8473 28.1889 39.9953 25.3589 39.2543 21.7169C39.1946 21.464 39.0389 21.2443 38.82 21.1042C38.6012 20.9642 38.3365 20.9148 38.0819 20.9665C37.8273 21.0183 37.6028 21.167 37.456 21.3814C37.3092 21.5957 37.2515 21.8588 37.2952 22.1149C38.1332 26.2369 40.2442 29.4629 43.2252 31.8819C44.9025 33.2396 46.7958 34.3061 48.8263 35.0369C48.8487 35.7522 48.871 36.4675 48.8933 37.1829C48.9013 37.4469 48.9163 37.6109 48.9753 38.1859C49.0073 38.5039 49.0243 38.6879 49.0353 38.8809C49.0802 39.6109 49.0062 40.0539 48.8223 40.2829C48.7393 40.3869 48.6083 40.4989 48.3453 40.6929L48.1303 40.8529C47.8069 41.0926 47.4986 41.3521 47.2073 41.6299C46.9959 41.8261 46.8018 42.0402 46.6273 42.2699C45.8853 43.2659 45.9972 44.4719 47.3923 44.8669C48.8823 45.2889 50.6573 45.1709 51.5553 44.1569C52.1413 43.4969 52.5252 42.7029 52.9113 41.5529C52.9933 41.3079 53.3483 40.1909 53.2283 40.5669C53.2683 40.4379 53.3043 40.3299 53.3383 40.2299C54.6833 36.2339 54.7683 33.4639 52.9763 30.7989C52.415 29.9681 51.8243 29.1576 51.2053 28.3689C51.4173 26.9129 51.4092 25.4389 51.1772 24.0089C51.0863 23.4409 50.9743 22.9919 50.7173 22.0729C50.5672 21.5379 50.5073 21.3159 50.4413 21.0429C50.2737 20.3761 50.3071 19.6747 50.5373 19.0269C50.6493 18.7139 50.8553 18.4249 51.3383 17.8729L51.5993 17.5729L51.7213 17.4299C53.9653 14.7499 54.2773 10.7949 53.4023 6.09986C53.2083 5.05986 51.7433 4.99386 51.4573 6.01186C50.7683 8.45786 49.7763 10.4799 48.5563 12.1379C47.8282 13.138 46.9715 14.0377 46.0083 14.8139C45.8323 14.9549 45.5583 15.1539 45.2933 15.3439C43.8453 14.3079 41.8472 13.9439 38.8702 13.8769C38.4142 13.8669 38.0542 13.8639 37.2442 13.8599C35.7092 13.8539 35.0662 13.8379 34.3642 13.7719C31.8458 13.5362 29.4159 12.7217 27.2642 11.3919C25.1932 10.1159 24.0743 9.54885 22.6143 9.19586C22.359 9.1398 22.0919 9.18593 21.8702 9.32437C21.6485 9.46281 21.4898 9.68254 21.4281 9.93653C21.3664 10.1905 21.4066 10.4586 21.54 10.6833C21.6735 10.908 21.8897 11.0715 22.1423 11.1389C23.3363 11.4289 24.3173 11.9259 26.2153 13.0949C28.628 14.5857 31.3524 15.4991 34.1762 15.7639C34.9612 15.8369 35.6372 15.8539 37.2362 15.8599C38.0343 15.8639 38.3862 15.8669 38.8263 15.8769C41.7892 15.9419 43.5393 16.3339 44.5423 17.3169C44.6374 17.4102 44.7502 17.4835 44.874 17.5327C44.9979 17.5818 45.1303 17.6056 45.2636 17.6028C45.3968 17.6 45.5281 17.5706 45.6498 17.5164C45.7715 17.4621 45.8811 17.3841 45.9723 17.2869C44.9903 18.3319 48.6193 15.4269 50.1663 13.3229C50.8037 12.4534 51.3658 11.531 51.8463 10.5659C51.8363 12.8759 51.3223 14.7909 50.1883 16.1459Z" fill="#F0EEF7"/>
<path d="M25.2071 29.0347C25.2991 29.0447 25.4611 29.0567 25.6851 29.0687C28.0001 29.1977 30.6831 29.0087 33.2651 28.2457C35.7471 27.5127 37.8091 26.3137 39.2851 24.5557C39.3732 24.4556 39.4405 24.339 39.4829 24.2126C39.5253 24.0862 39.542 23.9526 39.532 23.8197C39.522 23.6867 39.4856 23.5571 39.4248 23.4385C39.364 23.3199 39.2801 23.2146 39.178 23.1288C39.0759 23.0431 38.9577 22.9786 38.8304 22.9392C38.703 22.8998 38.5691 22.8863 38.4364 22.8994C38.3037 22.9125 38.175 22.952 38.0578 23.0156C37.9407 23.0792 37.8374 23.1656 37.7541 23.2697C36.5571 24.6937 34.8311 25.6977 32.6971 26.3277C30.3721 27.0157 27.9021 27.1887 25.7961 27.0727C25.6011 27.0617 25.4681 27.0507 25.4051 27.0447C25.2735 27.0298 25.1403 27.0413 25.0131 27.0783C24.886 27.1154 24.7675 27.1773 24.6645 27.2606C24.5615 27.3438 24.476 27.4467 24.4131 27.5632C24.3502 27.6797 24.311 27.8076 24.2979 27.9393C24.2848 28.0711 24.298 28.2042 24.3367 28.3308C24.3754 28.4575 24.4389 28.5752 24.5235 28.6771C24.6081 28.779 24.7121 28.8631 24.8294 28.9244C24.9468 28.9858 25.0752 29.0233 25.2071 29.0347Z" fill="#F0EEF7"/>
<path d="M20.7353 42.9169C20.7893 42.8389 20.7793 42.8509 20.9443 42.6269C21.7553 41.5229 22.0843 40.3729 22.0023 38.9679C21.9769 38.4703 21.9692 37.972 21.9793 37.4739C21.9813 37.2789 21.9843 37.1209 21.9923 36.7679C22.0493 33.9599 21.9383 32.7059 21.2583 31.1579C20.7483 29.9979 20.0863 29.1559 18.7023 27.6919L18.3253 27.2919C17.0993 25.9919 16.2223 24.7329 15.6293 23.3569C14.8543 21.5569 14.4233 19.5379 14.2943 17.2919C14.1413 14.6199 13.4723 12.6749 11.8563 11.0269C11.6697 10.8419 11.4178 10.7378 11.155 10.7371C10.8923 10.7363 10.6398 10.839 10.4522 11.023C10.2646 11.2069 10.1569 11.4573 10.1524 11.72C10.1479 11.9827 10.247 12.2366 10.4283 12.4269C11.6553 13.6789 12.1703 15.1749 12.2983 17.4069C12.4393 19.8729 12.9183 22.1179 13.7923 24.1469C14.4853 25.7569 15.4943 27.2059 16.8693 28.6639L17.2483 29.0649C18.4803 30.3689 19.0383 31.0789 19.4273 31.9629C19.9513 33.1529 20.0443 34.2079 19.9923 36.7269L19.9793 37.4489C19.9713 38.0849 19.9773 38.5909 20.0063 39.0829C20.0613 40.0309 19.8643 40.7189 19.3323 41.4429C19.1503 41.6909 19.1593 41.6779 19.0893 41.7799C18.9293 42.0119 18.8023 42.2239 18.7043 42.4439C18.2483 43.4569 18.5493 44.4889 19.7633 44.8549C21.1323 45.2679 23.3833 45.0909 24.2613 44.2189C24.9293 43.5549 25.1123 42.6589 25.0513 41.4569C25.0383 41.1869 25.0153 40.9349 24.9733 40.5499C24.9183 40.0479 24.9233 40.0909 24.9113 39.9529C24.7553 38.0959 24.8613 35.6889 25.1543 33.0909C25.2773 31.9979 25.4993 30.9249 25.8863 29.4279C25.9673 29.1129 25.9893 29.0319 26.1993 28.2399C26.3063 27.8399 26.3733 27.5829 26.4433 27.3149C26.8153 25.8749 26.9033 24.6549 26.6173 23.4709C26.4953 22.9669 26.3573 22.5879 26.0363 21.8029C25.7643 21.1379 25.6583 20.8539 25.5653 20.5089C25.3487 19.7123 25.1709 18.9056 25.0323 18.0919C25.0103 17.9624 24.9631 17.8385 24.8933 17.7272C24.8235 17.616 24.7325 17.5196 24.6254 17.4436C24.5183 17.3675 24.3973 17.3133 24.2693 17.284C24.1413 17.2547 24.0088 17.2509 23.8793 17.2729C23.7498 17.2948 23.6259 17.342 23.5147 17.4118C23.4034 17.4816 23.307 17.5727 23.231 17.6797C23.1549 17.7868 23.1007 17.9078 23.0714 18.0358C23.0421 18.1638 23.0383 18.2964 23.0603 18.4259C23.2103 19.3029 23.4013 20.1739 23.6343 21.0329C23.7573 21.4829 23.8823 21.8189 24.1773 22.5409C24.4673 23.2529 24.5823 23.5679 24.6733 23.9419C24.8703 24.7539 24.8033 25.6649 24.5063 26.8139C24.4383 27.0769 24.3723 27.3309 24.2663 27.7259C24.0543 28.5239 24.0333 28.6059 23.9503 28.9269C23.5413 30.5069 23.3023 31.6629 23.1663 32.8669C22.8613 35.5839 22.7503 38.1069 22.9183 40.1199C22.9323 40.2839 22.9263 40.2349 22.9843 40.7669C23.0233 41.1169 23.0433 41.3359 23.0543 41.5569C23.0883 42.2399 23.0053 42.6469 22.8513 42.7999C22.6393 43.0109 21.4623 43.1299 20.6713 43.0119C20.6913 42.9819 20.7113 42.9499 20.7353 42.9169ZM42.7323 41.1339C43.2853 40.5689 43.5193 40.2819 43.7283 39.8159C44.0263 39.1479 44.2153 38.3569 44.2773 37.4359C44.3843 35.8359 44.0043 34.2289 43.1613 32.9239C42.7273 32.2489 42.3043 31.8369 41.3353 31.0279C40.5953 30.4119 40.2993 30.1309 40.0153 29.7439C38.8803 28.2069 38.7553 26.5539 39.7553 25.2539C39.9168 25.0434 39.9881 24.7774 39.9535 24.5144C39.9189 24.2514 39.7812 24.0129 39.5708 23.8514C39.3603 23.6898 39.0943 23.6185 38.8313 23.6531C38.5683 23.6877 38.3298 23.8254 38.1683 24.0359C36.5783 26.1049 36.7783 28.7259 38.4043 30.9309C38.8153 31.4889 39.1923 31.8449 40.0463 32.5579C40.8693 33.2449 41.1913 33.5579 41.4813 34.0079C42.0823 34.9379 42.3613 36.1179 42.2813 37.3019C42.2353 37.9929 42.1013 38.5539 41.9013 38.9999C41.8233 39.1769 41.6903 39.3389 41.3283 39.7099C40.5323 40.5239 40.2113 40.9959 40.1353 41.8269C39.9993 43.2999 41.0773 44.0289 42.4633 43.9569C43.3733 43.9109 44.4433 43.5269 45.0033 43.0389C46.1333 42.0549 46.4663 40.7139 46.5033 38.6549L46.5103 38.1779C46.5323 36.6209 46.5813 36.0009 46.7903 35.2619C46.946 34.7154 47.1859 34.1965 47.5013 33.7239C47.5732 33.614 47.6229 33.4911 47.6473 33.362C47.6718 33.233 47.6706 33.1004 47.6438 32.9719C47.617 32.8433 47.5651 32.7213 47.4912 32.6127C47.4172 32.5042 47.3226 32.4113 47.2128 32.3394C47.1029 32.2674 46.98 32.2178 46.8509 32.1933C46.7219 32.1689 46.5893 32.1701 46.4608 32.1969C46.3322 32.2237 46.2102 32.2755 46.1017 32.3495C45.9931 32.4234 45.9002 32.518 45.8283 32.6279C45.4012 33.2709 45.0763 33.9763 44.8653 34.7189C44.5933 35.6819 44.5353 36.4189 44.5103 38.1489L44.5033 38.6189C44.4753 40.1439 44.2533 41.0389 43.6893 41.5309C43.4893 41.7049 42.8483 41.9349 42.3603 41.9609C42.2846 41.9651 42.2087 41.9638 42.1333 41.9569C42.1693 41.7569 42.3093 41.5669 42.7333 41.1339H42.7323ZM9.10027 6.78586L10.8283 6.87886C11.0917 6.89072 11.3491 6.79808 11.5445 6.6211C11.7399 6.44413 11.8575 6.19714 11.8718 5.93387C11.886 5.67061 11.7957 5.41237 11.6205 5.21535C11.4453 5.01833 11.1994 4.89848 10.9363 4.88186L9.20627 4.78886C8.94364 4.77853 8.6875 4.87202 8.49327 5.0491C8.29904 5.22618 8.18233 5.47261 8.1684 5.73508C8.15447 5.99755 8.24443 6.25495 8.41882 6.4516C8.59322 6.64824 8.83802 6.76832 9.10027 6.78586Z" fill="#F0EEF7"/>
<path fill-rule="evenodd" clip-rule="evenodd" d="M3.96302 6.54102C4.16002 8.68702 2.39302 8.93102 2.39302 8.93102L1.74902 7.64002L2.39902 6.81102L3.96302 6.54102Z" fill="#F0EEF7"/>
<path d="M2.98993 7.43584C2.92342 7.60621 2.80876 7.75354 2.65993 7.85984C2.59793 7.90384 2.53593 7.93984 2.47993 7.96684C2.41359 8.00041 2.34292 8.02464 2.26993 8.03884L3.19893 8.52784L2.55293 7.23684L2.45593 8.19484L3.10593 7.36684L2.54993 7.69784L4.11593 7.42784L3.06693 6.62384C3.09893 6.96984 3.06893 7.23284 2.98993 7.43584ZM4.85993 6.45884C4.97893 7.75884 4.53293 8.72884 3.71193 9.32084C3.35947 9.5816 2.94911 9.75315 2.51593 9.82084C2.32981 9.84643 2.14035 9.81313 1.97411 9.72562C1.80787 9.6381 1.67318 9.50076 1.58893 9.33284L0.942931 8.04284C0.866509 7.89024 0.835051 7.71906 0.852226 7.54926C0.8694 7.37946 0.9345 7.21805 1.03993 7.08384L1.68993 6.25584C1.82758 6.08061 2.02533 5.96267 2.24493 5.92484L3.80993 5.65484C3.93233 5.63361 4.0578 5.63795 4.17844 5.66758C4.29907 5.69722 4.41227 5.7515 4.5109 5.82703C4.60954 5.90255 4.69146 5.99767 4.75153 6.10641C4.8116 6.21515 4.84851 6.33514 4.85993 6.45884Z" fill="#F0EEF7"/>
</svg>
