<svg width="53" height="61" viewBox="0 0 53 61" fill="none" xmlns="http://www.w3.org/2000/svg">
<path d="M8.46675 10.9079L10.1558 10.8839C10.421 10.88 10.6738 10.771 10.8586 10.5807C11.0434 10.3905 11.1451 10.1346 11.1413 9.86939C11.1374 9.60418 11.0284 9.35135 10.8381 9.16653C10.6479 8.98172 10.392 8.88005 10.1268 8.88389L8.43775 8.90789C8.17254 8.91174 7.91971 9.02079 7.73489 9.21104C7.55008 9.4013 7.44841 9.65718 7.45225 9.92239C7.4561 10.1876 7.56514 10.4404 7.7554 10.6253C7.94566 10.8101 8.20154 10.9117 8.46675 10.9079ZM47.0378 59.4749C46.3278 59.4709 45.9538 59.4689 45.5168 59.4689C43.2238 59.4689 41.3647 59.0489 39.5568 58.2799C39.0068 58.0469 37.5338 57.3279 37.3968 57.2679C36.4868 56.8669 35.8538 56.7709 35.2068 57.1989C34.993 57.3401 34.8417 57.5579 34.7838 57.8074C34.7259 58.0569 34.766 58.3191 34.8958 58.5399C34.9838 58.6899 35.1258 59.0399 35.2758 59.4699H19.2018C19.3378 59.2489 19.5498 59.1049 19.8618 59.0539C20.2488 58.9909 21.5558 58.7839 21.8248 58.7409C22.5948 58.6211 23.3611 58.4787 24.1228 58.3139C25.2928 58.0539 26.3758 57.7299 27.5648 57.2689C27.7044 57.2148 27.83 57.1301 27.9325 57.021C28.035 56.9118 28.1117 56.7811 28.1569 56.6384C28.2021 56.4956 28.2147 56.3446 28.1937 56.1964C28.1728 56.0481 28.1188 55.9065 28.0358 55.7819C27.7358 55.3319 24.7768 52.4089 24.7738 52.4049C24.2786 51.8972 23.8026 51.3712 23.3468 50.8279C22.5468 49.8609 22.0398 49.0519 21.8728 48.4579C21.7478 48.0139 21.8068 47.8559 22.1568 47.6799C23.6698 46.9179 27.4768 47.3919 30.3938 48.3889C30.518 48.4313 30.6495 48.4488 30.7806 48.4405C30.9116 48.4321 31.0398 48.398 31.1576 48.3401C31.2755 48.2822 31.3808 48.2016 31.4676 48.103C31.5544 48.0044 31.6208 47.8897 31.6633 47.7654C31.7057 47.6411 31.7232 47.5097 31.7148 47.3786C31.7064 47.2475 31.6723 47.1194 31.6144 47.0015C31.5565 46.8836 31.476 46.7783 31.3774 46.6915C31.2788 46.6048 31.1641 46.5383 31.0398 46.4959C27.6338 45.3319 23.4148 44.8059 21.2568 45.8929C20.0038 46.5239 19.5768 47.6789 19.9478 48.9999C20.2078 49.9259 20.8428 50.9399 21.8078 52.1039C22.2478 52.6359 22.7518 53.1899 23.3338 53.7939C23.4748 53.9399 24.5918 55.0459 25.4328 55.8989C24.8558 56.0789 24.2868 56.2289 23.6898 56.3609C22.9655 56.5176 22.2369 56.6529 21.5048 56.7669L19.5408 57.0799C17.1848 57.4639 15.8938 61.2189 18.1108 61.4629L36.6118 61.4689C36.7441 61.4689 36.8751 61.4426 36.9972 61.3916C37.1193 61.3406 37.2301 61.2659 37.3231 61.1718C37.4162 61.0776 37.4896 60.966 37.5391 60.8433C37.5886 60.7205 37.6133 60.5892 37.6118 60.4569C37.6098 60.2929 37.5168 59.9159 37.3828 59.4769C37.8648 59.7069 38.4468 59.9819 38.7748 60.1209C40.8188 60.9889 42.9388 61.4689 45.5168 61.4689C45.9487 61.4689 46.3198 61.4709 47.0268 61.4749C49.0008 61.4849 49.7038 61.4819 50.4458 61.4419C52.1878 61.3489 52.7608 61.2139 52.7698 60.1019C52.7848 58.5249 51.7198 58.0349 49.0198 57.5159C48.9968 57.5109 47.6958 57.2689 47.3008 57.1889C46.6978 57.0716 46.0997 56.9308 45.5078 56.7669C42.3848 55.8849 40.5558 54.3819 39.9298 51.5749C38.4598 43.8029 35.5438 38.7519 27.8898 28.8279C26.8918 27.5329 26.6018 26.8379 26.1508 25.1379C25.9948 24.5509 25.8878 24.2069 25.7228 23.8189C25.4118 23.0859 24.9648 22.4359 24.2908 21.7789C23.8788 21.3789 23.4848 21.1019 22.7758 20.6699C22.1708 20.3009 22.3008 20.3809 22.1398 20.2769C21.4198 19.8139 20.9528 19.3869 20.5438 18.7569C20.1098 18.1309 17.8458 13.3599 16.8738 11.0569C16.8227 10.9359 16.7483 10.8261 16.6547 10.7339C16.5612 10.6416 16.4505 10.5687 16.3288 10.5192C16.2071 10.4698 16.0769 10.4448 15.9455 10.4457C15.8142 10.4466 15.6843 10.4733 15.5633 10.5244C15.4422 10.5755 15.3325 10.6499 15.2402 10.7434C15.148 10.8369 15.075 10.9477 15.0256 11.0694C14.9761 11.1911 14.9511 11.3213 14.952 11.4526C14.9529 11.584 14.9797 11.7139 15.0308 11.8349C16.0618 14.2779 18.3568 19.1129 18.8828 19.8709C19.4478 20.7429 20.1168 21.3539 21.0568 21.9589C21.1638 22.0279 21.2748 22.0969 21.4068 22.1779L21.7358 22.3779C22.3238 22.7369 22.6198 22.9449 22.8958 23.2129C23.3808 23.6849 23.6758 24.1129 23.8828 24.6009C23.9998 24.8789 24.0848 25.1489 24.2178 25.6509C24.7308 27.5839 25.1138 28.5009 26.3078 30.0489C33.7788 39.7389 36.5708 44.5729 37.9708 51.9789C38.7888 55.6459 41.2008 57.6289 44.9648 58.6919C45.5628 58.8609 46.1828 59.0049 46.9078 59.1499C47.3178 59.2319 48.6248 59.4759 48.6428 59.4799C48.2218 59.4799 47.7028 59.4779 47.0378 59.4749Z" fill="#F0EEF7"/>
<path d="M10.3061 59.0279L10.6301 58.9619C12.3341 58.6199 13.1281 58.1499 13.2321 56.6789C13.4631 53.4429 13.5451 47.5649 13.3201 43.1829C13.1961 40.8029 12.8641 38.5509 12.3011 36.3649C11.2341 32.2129 11.0581 28.3949 11.7841 24.3579C12.1421 22.3679 12.2031 20.8489 11.8361 19.4049C11.4271 17.7939 10.2461 16.4969 8.68106 16.2119C7.94306 16.0769 7.26806 16.1669 6.27906 16.4379C6.17906 16.4649 6.09606 16.4879 5.92806 16.5359C5.19506 16.7439 4.89306 16.8139 4.55806 16.8369C3.90006 16.8819 3.42606 16.8149 3.13106 16.6269C2.86906 16.4589 2.76106 16.2069 2.59206 15.3639L2.53006 15.0589C2.40673 14.4721 2.28906 13.884 2.17706 13.2949C2.02806 12.5079 1.87706 11.6649 1.73106 10.8209H4.42406C6.08406 10.8209 6.93206 9.91392 7.12306 7.84292C8.99106 7.84251 10.8591 7.84251 12.7271 7.84292C13.7961 7.84292 14.1191 6.39292 13.1521 5.93792C12.3531 5.56392 12.0491 4.37292 12.4041 3.24092C12.5171 3.45392 12.6421 3.66992 12.7771 3.88892C13.1031 4.41592 13.4191 4.79892 14.0811 5.52892C14.7741 6.28992 15.2351 7.12292 15.4491 7.98392C15.6911 8.95792 15.6431 9.82692 15.3251 10.1609C15.2802 10.2098 15.2246 10.2475 15.1626 10.2711C15.1007 10.2947 15.034 10.3036 14.9681 10.297C14.9021 10.2904 14.8385 10.2685 14.7825 10.2331C14.7264 10.1977 14.6794 10.1497 14.6451 10.0929C14.5038 9.86842 14.2792 9.70921 14.0206 9.65032C13.762 9.59144 13.4906 9.6377 13.2661 9.77892C13.0416 9.92015 12.8823 10.1448 12.8235 10.4034C12.7646 10.662 12.8108 10.9334 12.9521 11.1579C13.1485 11.4723 13.4145 11.7376 13.7294 11.9332C14.0443 12.1289 14.3999 12.2498 14.7688 12.2867C15.1377 12.3236 15.5102 12.2755 15.8576 12.146C16.2051 12.0166 16.5182 11.8092 16.7731 11.5399C17.7001 10.5669 17.7821 9.07992 17.3901 7.50192C17.0931 6.30892 16.4701 5.18192 15.6101 4.23992C14.9801 3.54392 14.7201 3.22792 14.4781 2.83692C14.0221 2.09892 13.7271 1.40092 13.7271 1.00092C13.7272 0.809574 13.6725 0.622191 13.5694 0.461015C13.4662 0.299838 13.319 0.171636 13.1452 0.091623C12.9714 0.0116101 12.7783 -0.0168535 12.5888 0.00961046C12.3992 0.0360744 12.2213 0.116355 12.0761 0.240923C10.3501 1.72192 9.88006 4.09392 10.5661 5.84292C9.38006 5.84302 8.19406 5.84302 7.00806 5.84292H6.38606C6.22006 5.84292 6.22006 5.84292 6.06006 5.84892C5.8143 5.87487 5.58685 5.9909 5.42158 6.17464C5.25631 6.35837 5.16493 6.5968 5.16506 6.84392C5.16506 8.64292 5.04106 8.82092 4.42406 8.82092H0.548061C0.403016 8.82089 0.2597 8.85242 0.128055 8.91331C-0.0035907 8.97419 -0.120415 9.06299 -0.214314 9.17354C-0.308214 9.28409 -0.376941 9.41374 -0.415729 9.5535C-0.454517 9.69327 -0.462436 9.83979 -0.438939 9.98292C-0.376155 10.367 -0.311154 10.7506 -0.243939 11.1339C-0.0949391 11.9969 0.0590609 12.8599 0.212061 13.6669C0.343647 14.3628 0.482989 15.0572 0.630061 15.7499C0.903061 17.1149 1.17506 17.7509 2.05506 18.3129C2.79206 18.7829 3.64706 18.9029 4.69506 18.8329C5.21906 18.7959 5.60406 18.7069 6.47306 18.4599L6.80606 18.3669C7.52706 18.1699 7.95606 18.1129 8.32306 18.1789C9.04906 18.3119 9.66806 18.9919 9.89806 19.8969C10.1781 21.0019 10.1281 22.2699 9.81606 24.0029C9.03806 28.3299 9.22706 32.4379 10.3641 36.8629C10.8931 38.9169 11.2051 41.0369 11.3221 43.2869C11.5431 47.5829 11.4621 53.3799 11.2381 56.5369C11.2211 56.7669 11.1261 56.8229 10.2371 57.0009L9.89206 57.0709C7.98106 57.4749 6.95806 58.3619 6.95806 60.4699C6.95806 60.7351 7.06342 60.9895 7.25095 61.177C7.43849 61.3646 7.69284 61.4699 7.95806 61.4699H13.3551C15.2021 61.4699 15.8641 60.5799 16.1911 58.8119C16.2351 58.5719 16.2511 58.4919 16.2691 58.4049C16.5671 56.1929 17.1121 40.7599 16.9491 38.4129C16.9269 38.1513 16.8028 37.9088 16.6035 37.7379C16.4041 37.567 16.1456 37.4814 15.8836 37.4995C15.6217 37.5176 15.3773 37.6381 15.2034 37.8348C15.0295 38.0315 14.9399 38.2887 14.9541 38.5509C15.1071 40.7609 14.5671 56.0589 14.3001 58.0629C14.2891 58.0989 14.2711 58.1909 14.2371 58.3799C14.0511 59.3829 13.9871 59.4699 13.3551 59.4699H9.21906C9.41906 59.2579 9.75806 59.1439 10.3061 59.0279Z" fill="#F0EEF7"/>
<path d="M21.4079 46.308C20.3129 45.88 17.8419 43.954 16.9049 42.71C16.8259 42.6052 16.727 42.5169 16.6138 42.4503C16.5006 42.3836 16.3754 42.34 16.2454 42.3217C16.1153 42.3035 15.983 42.311 15.8558 42.3439C15.7287 42.3768 15.6093 42.4345 15.5044 42.5135C15.3996 42.5926 15.3113 42.6915 15.2447 42.8047C15.1781 42.9178 15.1344 43.043 15.1161 43.1731C15.0979 43.3031 15.1054 43.4355 15.1384 43.5626C15.1713 43.6897 15.2289 43.8092 15.3079 43.914C16.4629 45.447 19.2299 47.604 20.6789 48.171C20.926 48.2677 21.2013 48.2623 21.4444 48.1559C21.6874 48.0496 21.8783 47.8511 21.9749 47.604C22.0716 47.357 22.0662 47.0816 21.9599 46.8386C21.8535 46.5955 21.655 46.4047 21.4079 46.308Z" fill="#F0EEF7"/>
<path fill-rule="evenodd" clip-rule="evenodd" d="M2.45361 9.81299C3.03361 9.81299 3.50561 10.287 3.50561 10.865C3.50561 11.444 3.03261 11.917 2.45361 11.917H1.40161L0.849609 10.063L2.45361 9.81299Z" fill="#F0EEF7"/>
<path d="M2.00659 10.7931L2.07259 11.0171H2.45359C2.53559 11.0171 2.60559 10.9471 2.60559 10.8651C2.60559 10.7961 2.55559 10.7351 2.49159 10.7181L2.00659 10.7931ZM2.45359 8.91309C3.52959 8.91309 4.40559 9.78909 4.40559 10.8651C4.4048 11.3825 4.19889 11.8786 3.83299 12.2445C3.46709 12.6104 2.97105 12.8163 2.45359 12.8171H1.40159C1.20771 12.8169 1.01907 12.7541 0.863754 12.6381C0.708434 12.522 0.594739 12.359 0.539591 12.1731L-0.0124089 10.3191C-0.0490355 10.196 -0.0589074 10.0666 -0.0413615 9.93936C-0.0238157 9.81217 0.0207417 9.6902 0.0893185 9.58166C0.157895 9.47311 0.248904 9.38049 0.356233 9.31002C0.463562 9.23955 0.584727 9.19286 0.711591 9.17309L2.31559 8.92309L2.45359 8.91309Z" fill="#F0EEF7"/>
</svg>
