<svg width="21" height="22" viewBox="0 0 21 22" fill="none" xmlns="http://www.w3.org/2000/svg">
<g id="vuesax/linear/facebook">
<g id="facebook">
<path id="Vector" d="M12.25 8.83086V11.3684H14.525C14.7 11.3684 14.7875 11.5434 14.7875 11.7184L14.4375 13.3809C14.4375 13.4684 14.2625 13.5559 14.175 13.5559H12.25V19.9434H9.625V13.6434H8.1375C7.9625 13.6434 7.875 13.5559 7.875 13.3809V11.7184C7.875 11.5434 7.9625 11.4559 8.1375 11.4559H9.625V8.56836C9.625 7.08086 10.7625 5.94336 12.25 5.94336H14.6125C14.7875 5.94336 14.875 6.03086 14.875 6.20586V8.30586C14.875 8.48086 14.7875 8.56836 14.6125 8.56836H12.5125C12.3375 8.56836 12.25 8.65586 12.25 8.83086Z" stroke="#040405" stroke-miterlimit="10" stroke-linecap="round"/>
<path id="Vector_2" d="M13.125 19.9434H7.875C3.5 19.9434 1.75 18.1934 1.75 13.8184V8.56836C1.75 4.19336 3.5 2.44336 7.875 2.44336H13.125C17.5 2.44336 19.25 4.19336 19.25 8.56836V13.8184C19.25 18.1934 17.5 19.9434 13.125 19.9434Z" stroke="#040405" stroke-linecap="round" stroke-linejoin="round"/>
</g>
</g>
</svg>
