<svg width="21" height="21" viewBox="0 0 21 21" fill="none" xmlns="http://www.w3.org/2000/svg">
<g id="vuesax/linear/facebook">
<g id="facebook">
<path id="Vector" d="M12.25 8.1375V10.675H14.525C14.7 10.675 14.7875 10.85 14.7875 11.025L14.4375 12.6875C14.4375 12.775 14.2625 12.8625 14.175 12.8625H12.25V19.25H9.625V12.95H8.1375C7.9625 12.95 7.875 12.8625 7.875 12.6875V11.025C7.875 10.85 7.9625 10.7625 8.1375 10.7625H9.625V7.875C9.625 6.3875 10.7625 5.25 12.25 5.25H14.6125C14.7875 5.25 14.875 5.3375 14.875 5.5125V7.6125C14.875 7.7875 14.7875 7.875 14.6125 7.875H12.5125C12.3375 7.875 12.25 7.9625 12.25 8.1375Z" stroke="white" stroke-width="1.5" stroke-miterlimit="10" stroke-linecap="round"/>
<path id="Vector_2" d="M13.125 19.25H7.875C3.5 19.25 1.75 17.5 1.75 13.125V7.875C1.75 3.5 3.5 1.75 7.875 1.75H13.125C17.5 1.75 19.25 3.5 19.25 7.875V13.125C19.25 17.5 17.5 19.25 13.125 19.25Z" stroke="white" stroke-width="1.5" stroke-linecap="round" stroke-linejoin="round"/>
</g>
</g>
</svg>
