<svg width="33" height="32" viewBox="0 0 33 32" fill="none" xmlns="http://www.w3.org/2000/svg">
<g id="svg2067" clip-path="url(#clip0_14025_8300)">
<g id="g2073">
<g id="g2075">
<g id="Clip path group">
<mask id="mask0_14025_8300" style="mask-type:luminance" maskUnits="userSpaceOnUse" x="0" y="0" width="33" height="32">
<g id="clipPath2081">
<path id="path2079" d="M0.333313 1.90735e-06H32.3333V32H0.333313V1.90735e-06Z" fill="white"/>
</g>
</mask>
<g mask="url(#mask0_14025_8300)">
<g id="g2077">
<g id="g2083">
<path id="path2085" d="M20.2997 18.7609C20.5213 18.2823 20.6458 17.7496 20.6458 17.1875V9.6875C20.6458 4.855 16.7283 0.937502 11.8958 0.937502C7.06331 0.937502 3.14581 4.855 3.14581 9.6875V17.1875C3.14581 19.2586 4.82475 20.9375 6.89581 20.9375" stroke="#040405" stroke-width="1.5" stroke-miterlimit="10" stroke-linecap="round" stroke-linejoin="round"/>
</g>
<g id="g2087">
<path id="path2089" d="M9.70831 17.9962V20.9375H8.45831L11.8958 25.3125L15.3333 20.9375H14.0833V17.9962" stroke="#040405" stroke-width="1.5" stroke-miterlimit="10" stroke-linecap="round" stroke-linejoin="round"/>
</g>
<g id="g2091">
<path id="path2093" d="M6.27081 9.0625V12.8125C6.27081 15.9191 8.78925 18.4375 11.8958 18.4375C15.0024 18.4375 17.5208 15.9191 17.5208 12.8125V9.0625H16.8958C14.9286 9.0625 13.0762 8.13631 11.8958 6.5625C10.7154 8.13631 8.86306 9.0625 6.89581 9.0625H6.27081Z" stroke="#040405" stroke-width="1.5" stroke-miterlimit="10" stroke-linecap="round" stroke-linejoin="round"/>
</g>
<g id="g2095">
<path id="path2097" d="M26.7083 25.75C26.7083 26.7855 25.7289 27.3125 24.5208 27.3125C23.3127 27.3125 22.3333 26.7855 22.3333 25.75C22.3333 24.7145 23.3127 23.5625 24.5208 23.5625C25.7289 23.5625 26.7083 24.7145 26.7083 25.75Z" stroke="#040405" stroke-width="1.5" stroke-miterlimit="10" stroke-linecap="round" stroke-linejoin="round"/>
</g>
<g id="g2099">
<path id="path2101" d="M25.4583 20.4375C25.4583 20.9553 25.0386 21.375 24.5208 21.375C24.0031 21.375 23.5833 20.9553 23.5833 20.4375C23.5833 19.9197 24.0031 19.5 24.5208 19.5C25.0386 19.5 25.4583 19.9197 25.4583 20.4375Z" fill="#040405"/>
</g>
<g id="g2103">
<path id="path2105" d="M22.4209 20.804C22.7178 21.2281 22.6148 21.8127 22.1906 22.1097C21.7665 22.4067 21.1819 22.3035 20.8849 21.8794C20.588 21.4553 20.6911 20.8707 21.1151 20.5737C21.5393 20.2767 22.1239 20.3799 22.4209 20.804Z" fill="#040405"/>
</g>
<g id="g2107">
<path id="path2109" d="M26.6207 20.804C26.3238 21.2281 26.4268 21.8127 26.851 22.1097C27.2751 22.4067 27.8597 22.3035 28.1567 21.8794C28.4536 21.4553 28.3505 20.8707 27.9265 20.5737C27.5023 20.2767 26.9177 20.3799 26.6207 20.804Z" fill="#040405"/>
</g>
<g id="g2111">
<path id="path2113" d="M27.417 2.02006L26.9343 1.53731C26.1345 0.737563 24.8379 0.737563 24.0381 1.53731C23.2384 2.33713 23.2384 3.63381 24.0381 4.43356L27.417 7.8125L30.796 4.43356C31.5957 3.63381 31.5957 2.33713 30.796 1.53731C29.9962 0.737563 28.6995 0.737563 27.8998 1.53731L27.417 2.02006Z" stroke="#040405" stroke-width="1.5" stroke-miterlimit="10" stroke-linecap="round" stroke-linejoin="round"/>
</g>
<g id="g2115">
<path id="path2117" d="M14.0833 20.9372H18.1458C18.2499 20.9372 18.3527 20.9421 18.4549 20.9492" stroke="#040405" stroke-width="1.5" stroke-miterlimit="10" stroke-linecap="round" stroke-linejoin="round"/>
</g>
<g id="g2119">
<path id="path2121" d="M9.70831 20.9375H5.64581C3.22956 20.9375 1.27081 22.8963 1.27081 25.3125V31.0625H22.5208V30.7666" stroke="#040405" stroke-width="1.5" stroke-miterlimit="10" stroke-linecap="round" stroke-linejoin="round"/>
</g>
<g id="g2123">
<path id="path2125" d="M31.3958 24.1875C31.3958 27.9844 28.3177 31.0625 24.5208 31.0625C20.7239 31.0625 17.6458 27.9844 17.6458 24.1875C17.6458 20.3906 20.7239 17.3125 24.5208 17.3125C28.3177 17.3125 31.3958 20.3906 31.3958 24.1875Z" stroke="#040405" stroke-width="1.5" stroke-miterlimit="10" stroke-linecap="round" stroke-linejoin="round"/>
</g>
</g>
</g>
</g>
</g>
</g>
</g>
<defs>
<clipPath id="clip0_14025_8300">
<rect width="32" height="32" fill="white" transform="translate(0.333313)"/>
</clipPath>
</defs>
</svg>
