<svg width="21" height="22" viewBox="0 0 21 22" fill="none" xmlns="http://www.w3.org/2000/svg">
<g id="vuesax/linear/instagram">
<g id="instagram">
<path id="Vector" d="M7.875 19.9434H13.125C17.5 19.9434 19.25 18.1934 19.25 13.8184V8.56836C19.25 4.19336 17.5 2.44336 13.125 2.44336H7.875C3.5 2.44336 1.75 4.19336 1.75 8.56836V13.8184C1.75 18.1934 3.5 19.9434 7.875 19.9434Z" stroke="#040405" stroke-linecap="round" stroke-linejoin="round"/>
<path id="Vector_2" d="M10.5 14.2559C12.1914 14.2559 13.5625 12.8847 13.5625 11.1934C13.5625 9.50199 12.1914 8.13086 10.5 8.13086C8.80863 8.13086 7.4375 9.50199 7.4375 11.1934C7.4375 12.8847 8.80863 14.2559 10.5 14.2559Z" stroke="#040405" stroke-linecap="round" stroke-linejoin="round"/>
<path id="Vector_3" d="M15.4316 6.81836H15.4417" stroke="#040405" stroke-width="1.5" stroke-linecap="round" stroke-linejoin="round"/>
</g>
</g>
</svg>
