<svg width="243" height="40" viewBox="0 0 243 40" fill="none" xmlns="http://www.w3.org/2000/svg">
<g id="Group">
<path id="Vector" d="M0 39.1757C0.459459 39.0676 1.02252 38.5405 1.69369 37.5946C2.36486 36.6486 3.05405 35.5405 3.77027 34.2658C4.48649 32.991 5.17568 31.6486 5.83333 30.2342C6.4955 28.8243 7.04504 27.5946 7.48649 26.5495L18.2658 0H20.1081L30.8649 26.5495C31.3243 27.5946 31.8829 28.8243 32.545 30.2342C33.2027 31.6486 33.8874 32.991 34.5946 34.2658C35.3018 35.5405 35.9955 36.6486 36.6712 37.5946C37.3514 38.5405 37.9189 39.0676 38.3784 39.1757V39.4505H20.5766V39.1757C21.018 39.0676 21.2748 38.6351 21.3468 37.8829C21.4189 37.1306 21.3649 36.1892 21.1802 35.0631C20.9955 33.9369 20.7162 32.7027 20.3423 31.3649C19.9685 30.027 19.5496 28.7613 19.0901 27.5676L19.036 27.3468H9.07658C8.72973 28.5405 8.6036 29.8153 8.70721 31.1712C8.80631 32.527 9.02252 33.7793 9.35586 34.9279C9.68468 36.0766 10.0991 37.0405 10.5946 37.8288C11.0901 38.6171 11.5586 39.0676 12 39.1757V39.4505H0V39.1757ZM18.3739 25.6396L14.027 14.991L9.68018 25.6396H18.3739Z" fill="#FE5668"/>
<path id="Vector_2" d="M42.8874 13.2072C42.8874 12.1802 42.8694 11.1532 42.8333 10.1261C42.7973 9.0991 42.6982 8.18018 42.545 7.37387C42.3874 6.56757 42.1621 5.90541 41.8694 5.39189C41.5766 4.87838 41.1621 4.62162 40.6306 4.62162V4.34685C43.4549 4.05405 45.982 3.54054 48.2117 2.80631C50.4414 2.07207 52.3243 1.13964 53.8648 0H54.1666V26.2748C54.1666 27.2838 54.2027 28.5045 54.2748 29.9324C54.3468 31.3604 54.4775 32.7342 54.6621 34.045C54.8468 35.3559 55.0811 36.5135 55.3648 37.5135C55.6486 38.5135 55.991 39.0676 56.3964 39.1757V39.4505H40.6306V39.1757C41.054 39.0676 41.4009 38.509 41.6757 37.5135C41.9504 36.5135 42.1847 35.3604 42.3784 34.045C42.5721 32.7342 42.7027 31.3604 42.7748 29.9324C42.8468 28.5045 42.8829 27.2838 42.8829 26.2748V13.2072H42.8874Z" fill="#FE5668"/>
<path id="Vector_3" d="M62.0361 13.2072C62.0361 12.1802 62.018 11.1532 61.982 10.1261C61.946 9.0991 61.8469 8.18018 61.6937 7.37387C61.5361 6.56757 61.3108 5.90541 61.018 5.39189C60.7252 4.87838 60.3108 4.62162 59.7793 4.62162V4.34685C62.6036 4.05405 65.1306 3.54054 67.3604 2.80631C69.5901 2.07207 71.473 1.13964 73.0135 0H73.3153V26.2748C73.3153 27.2838 73.3514 28.5045 73.4234 29.9324C73.4955 31.3604 73.6261 32.7342 73.8108 34.045C73.9955 35.3559 74.2298 36.5135 74.5135 37.5135C74.7973 38.5135 75.1397 39.0676 75.5451 39.1757V39.4505H59.7793V39.1757C60.2027 39.0676 60.5496 38.509 60.8243 37.5135C61.0991 36.5135 61.3334 35.3604 61.527 34.045C61.7207 32.7342 61.8514 31.3604 61.9234 29.9324C61.9955 28.5045 62.0315 27.2838 62.0315 26.2748V13.2072H62.0361Z" fill="#FE5668"/>
<path id="Vector_4" d="M85.6397 23.108C85.491 24.2431 85.6757 25.3737 86.1892 26.4909C86.7027 27.608 87.464 28.6215 88.473 29.5314C89.482 30.4413 90.7388 31.162 92.2433 31.7071C93.7478 32.2476 95.4144 32.5179 97.2523 32.5179C98.6847 32.5179 100.059 32.3467 101.378 32.0089C102.698 31.671 103.919 31.1936 105.036 30.5764C106.153 29.9638 107.158 29.2206 108.05 28.3467C108.937 27.4774 109.64 26.5179 110.153 25.4728L111.802 26.162C110.811 30.5089 108.856 33.9008 105.928 36.3422C103.005 38.7837 99.1937 39.9999 94.4955 39.9999C92.0541 39.9999 89.8334 39.6665 87.8244 38.9954C85.8153 38.3242 84.0856 37.3512 82.6397 36.0674C81.1892 34.7837 80.0721 33.2431 79.2838 31.4458C78.4955 29.6485 78.0991 27.6215 78.0991 25.3647C78.0991 22.9999 78.5316 20.9053 79.3919 19.0764C80.2523 17.2521 81.491 15.7206 83.1036 14.4819C84.7162 13.2431 86.6802 12.3107 88.991 11.6755C91.3018 11.0449 93.9234 10.7251 96.8604 10.7251C101.059 10.7251 104.342 11.3647 106.712 12.635C109.077 13.9098 110.261 15.7296 110.261 18.0945C110.261 19.5629 109.73 20.8963 108.667 22.099C107.604 23.3017 106.266 24.3152 104.649 25.1395C103.036 25.9638 101.306 26.6035 99.464 27.0494C97.6216 27.4999 95.9099 27.7251 94.3334 27.7251C92.5361 27.7251 90.9595 27.3782 89.5991 26.6801C88.2433 25.9819 87.0225 24.7927 85.9415 23.1035H85.6397V23.108ZM88.0631 20.5764C88.0631 21.144 88.1216 21.6981 88.2433 22.2386C88.3649 22.7792 88.5721 23.2746 88.8739 23.7251C89.1757 24.1755 89.5721 24.5404 90.0586 24.8242C90.5451 25.108 91.1622 25.2521 91.9144 25.2521C92.7748 25.2521 93.6307 25.0449 94.473 24.635C95.3153 24.2251 96.0586 23.6665 96.7027 22.9728C97.3424 22.2746 97.8604 21.4503 98.2568 20.4954C98.6532 19.5404 98.8469 18.4954 98.8469 17.3602C98.8469 15.8557 98.482 14.653 97.7478 13.7566C97.0135 12.8602 96.0406 12.4098 94.8334 12.4098C94.0451 12.4098 93.2478 12.626 92.4415 13.0584C91.6352 13.4909 90.9054 14.0719 90.2523 14.8062C89.5991 15.5404 89.0721 16.4008 88.6712 17.3918C88.2658 18.3828 88.0676 19.4458 88.0676 20.581L88.0631 20.5764Z" fill="#FE5668"/>
<path id="Vector_5" d="M116.865 13.2071C116.865 12.1801 116.829 10.9548 116.757 9.53592C116.685 8.11701 116.549 6.74313 116.356 5.42331C116.162 4.10349 115.928 2.94584 115.653 1.95484C115.378 0.963854 115.031 0.414304 114.608 0.306196V0.00439453H130.261C133.234 0.00439453 135.901 0.279169 138.266 0.828719C140.631 1.37827 142.649 2.17557 144.32 3.22061C145.991 4.26566 147.266 5.54944 148.158 7.07196C149.045 8.59448 149.491 10.3557 149.491 12.3557C149.491 14.3557 149.095 15.9323 148.311 17.3648C147.522 18.7972 146.495 19.9864 145.23 20.9413C143.964 21.8963 142.549 22.6125 140.995 23.0855C139.437 23.563 137.896 23.8017 136.374 23.8017C134.743 23.8017 133.243 23.4729 131.878 22.8107C130.509 22.1485 129.27 21.2792 128.149 20.1981V26.2792C128.149 27.2882 128.185 28.5089 128.257 29.9368C128.329 31.3693 128.459 32.7386 128.644 34.0494C128.829 35.3602 129.058 36.5179 129.347 37.5179C129.631 38.5179 129.973 39.072 130.378 39.1801V39.4548H114.613V39.1801C115.036 39.072 115.383 38.5134 115.658 37.5179C115.932 36.5179 116.167 35.3647 116.36 34.0494C116.554 32.7386 116.685 31.3647 116.761 29.9368C116.833 28.5044 116.869 27.2882 116.869 26.2792V13.2116L116.865 13.2071ZM128.144 17.635C129.081 18.8107 129.995 19.6666 130.896 20.2071C131.793 20.7476 132.604 21.0179 133.315 21.0179C134.104 21.0179 134.788 20.7566 135.365 20.2341C135.941 19.7116 136.419 19.0449 136.797 18.2386C137.171 17.4323 137.459 16.5179 137.649 15.4999C137.842 14.4819 137.937 13.4864 137.937 12.5134C137.937 10.8648 137.694 9.38277 137.207 8.07196C136.721 6.76115 136.04 5.63953 135.171 4.71611C134.302 3.78818 133.266 3.07647 132.063 2.57196C130.86 2.06746 129.554 1.81521 128.144 1.81521V17.635Z" fill="#64A002"/>
<path id="Vector_6" d="M158.491 23.108C158.342 24.2431 158.527 25.3737 159.041 26.4909C159.554 27.608 160.315 28.6215 161.324 29.5314C162.333 30.4413 163.59 31.162 165.095 31.7071C166.599 32.2476 168.266 32.5179 170.104 32.5179C171.536 32.5179 172.91 32.3467 174.23 32.0089C175.55 31.671 176.77 31.1936 177.887 30.5764C179.005 29.9638 180.009 29.2206 180.901 28.3467C181.788 27.4774 182.491 26.5179 183.004 25.4728L184.653 26.162C183.662 30.5089 181.707 33.9008 178.779 36.3422C175.856 38.7837 172.045 39.9999 167.347 39.9999C164.905 39.9999 162.685 39.6665 160.676 38.9954C158.667 38.3242 156.937 37.3512 155.491 36.0674C154.041 34.7837 152.923 33.2431 152.135 31.4458C151.347 29.6485 150.95 27.6215 150.95 25.3647C150.95 22.9999 151.383 20.9053 152.243 19.0764C153.104 17.2521 154.342 15.7206 155.955 14.4819C157.568 13.2431 159.532 12.3107 161.842 11.6755C164.153 11.0449 166.775 10.7251 169.712 10.7251C173.91 10.7251 177.194 11.3647 179.563 12.635C181.928 13.9098 183.113 15.7296 183.113 18.0945C183.113 19.5629 182.581 20.8963 181.518 22.099C180.455 23.3017 179.117 24.3152 177.5 25.1395C175.887 25.9638 174.158 26.6035 172.315 27.0494C170.473 27.4999 168.761 27.7251 167.185 27.7251C165.387 27.7251 163.811 27.3782 162.45 26.6801C161.095 25.9819 159.874 24.7927 158.793 23.1035H158.491V23.108ZM160.91 20.5764C160.91 21.144 160.968 21.6981 161.09 22.2386C161.212 22.7792 161.419 23.2746 161.721 23.7251C162.023 24.1755 162.419 24.5404 162.905 24.8242C163.392 25.108 164.009 25.2521 164.761 25.2521C165.622 25.2521 166.477 25.0449 167.32 24.635C168.162 24.2251 168.905 23.6665 169.55 22.9728C170.189 22.2746 170.707 21.4503 171.104 20.4954C171.5 19.5404 171.694 18.4954 171.694 17.3602C171.694 15.8557 171.329 14.653 170.595 13.7566C169.86 12.8602 168.887 12.4098 167.68 12.4098C166.892 12.4098 166.095 12.626 165.288 13.0584C164.482 13.4909 163.752 14.0719 163.099 14.8062C162.446 15.5404 161.919 16.4008 161.518 17.3918C161.113 18.3828 160.914 19.4458 160.914 20.581L160.91 20.5764Z" fill="#64A002"/>
<path id="Vector_7" d="M200.554 11.2795H205.671V12.9596H200.554V29.7704C200.554 31.6038 200.833 33.0317 201.392 34.0497C201.95 35.0677 202.716 35.5768 203.689 35.5768C204.441 35.5768 205.194 35.2659 205.946 34.6398C206.698 34.0182 207.266 33.0092 207.653 31.6128L208.671 32.5768C208.36 33.7119 207.847 34.7119 207.131 35.5768C206.414 36.4371 205.599 37.1578 204.68 37.7344C203.761 38.311 202.748 38.7434 201.64 39.0272C200.532 39.311 199.437 39.4551 198.351 39.4551C195.527 39.4551 193.306 38.6218 191.694 36.9506C190.081 35.284 189.275 32.9822 189.275 30.0452V12.9596H186.91V11.2795H189.275C190.027 11.2795 190.928 10.9912 191.986 10.4146C193.041 9.83802 194.099 9.13081 195.162 8.29748C196.225 7.46414 197.212 6.56775 198.122 5.6173C199.032 4.66234 199.685 3.82901 200.09 3.11279H200.559V11.284L200.554 11.2795Z" fill="#64A002"/>
<path id="Vector_8" d="M231.531 34.775C231.531 33.6579 231.054 32.73 230.099 31.9957C229.144 31.2615 227.941 30.5948 226.495 29.9867C225.05 29.3786 223.477 28.7975 221.793 28.239C220.104 27.6804 218.536 27.0138 217.09 26.2435C215.64 25.4732 214.437 24.5318 213.473 23.4237C212.509 22.3156 212.027 20.9327 212.027 19.284C212.027 16.6444 213.306 14.5588 215.865 13.0273C218.423 11.4957 221.923 10.73 226.36 10.73C230.027 10.73 233.036 11.2795 235.383 12.3786C237.73 13.4777 239.563 15.0453 240.883 17.0813L232.491 21.757H232.022C232.149 18.4912 231.802 16.1174 230.977 14.6309C230.153 13.1444 228.851 12.4012 227.072 12.4012C225.878 12.4012 224.91 12.6984 224.158 13.293C223.405 13.8876 223.031 14.703 223.031 15.73C223.031 16.8471 223.509 17.793 224.464 18.5633C225.419 19.3336 226.622 20.0228 228.068 20.6264C229.513 21.23 231.086 21.8246 232.77 22.4012C234.459 22.9777 236.027 23.6444 237.473 24.3966C238.923 25.1489 240.122 26.0588 241.077 27.1354C242.031 28.2075 242.509 29.5543 242.509 31.1669C242.509 32.5228 242.131 33.757 241.378 34.8651C240.626 35.9732 239.568 36.9012 238.203 37.6444C236.838 38.3876 235.185 38.9642 233.252 39.3786C231.315 39.793 229.185 39.9957 226.856 39.9957C222.73 39.9957 219.329 39.4057 216.662 38.221C213.995 37.0363 211.887 35.5093 210.347 33.6399L218.901 28.5228H219.369C219.131 35.0543 221.423 38.3156 226.248 38.3156C227.788 38.3156 229.054 38.0048 230.045 37.3786C231.036 36.757 231.531 35.8831 231.531 34.766V34.775Z" fill="#64A002"/>
</g>
</svg>
